<svg xmlns="http://www.w3.org/2000/svg" xmlns:xlink="http://www.w3.org/1999/xlink" viewBox="0 0 64 64" version="1.1" style="max-width:100%" height="100%">
<g id="surface1" style="" fill="currentColor">
<path style="" d="M 11 4 C 7.140625 4 4 7.140625 4 11 L 4 13 C 4 15.757813 6.242188 18 9 18 L 16 18 L 16 55 C 16 56.652344 17.347656 58 19 58 L 28 58 L 28 63 C 28 63.347656 28.179688 63.667969 28.472656 63.851563 C 28.769531 64.035156 29.136719 64.046875 29.449219 63.894531 L 34.078125 62.078125 L 38.683594 63.949219 C 38.785156 63.984375 38.894531 64 39 64 C 39.207031 64 39.414063 63.9375 39.585938 63.8125 C 39.847656 63.625 40 63.320313 40 63 L 40 58 L 59 58 C 60.652344 58 62 56.652344 62 55 L 62 11 C 62 7.140625 58.859375 4 55 4 Z M 11 6 C 13.898438 6 16 8.101563 16 11 L 16 16 L 12.972656 16 C 13.609375 15.160156 14 14.128906 14 13 L 14 12 C 14 11.445313 13.554688 11 13 11 C 12.445313 11 12 11.445313 12 12 L 12 13 C 12 14.652344 10.652344 16 9 16 C 7.347656 16 6 14.652344 6 13 L 6 11 C 6 8.242188 8.242188 6 11 6 Z M 15.992188 6 L 55 6 C 57.757813 6 60 8.242188 60 11 L 60 46 L 45 46 C 44.445313 46 44 46.445313 44 47 C 44 47.554688 44.445313 48 45 48 L 60 48 L 60 55 C 60 55.550781 59.550781 56 59 56 L 40 56 L 40 51.316406 L 42.3125 50.546875 C 42.617188 50.449219 42.851563 50.210938 42.953125 49.90625 C 43.050781 49.605469 43 49.273438 42.8125 49.015625 L 41.367188 47 L 42.8125 44.984375 C 43 44.722656 43.046875 44.394531 42.953125 44.089844 C 42.851563 43.789063 42.617188 43.550781 42.3125 43.449219 L 39.960938 42.671875 L 39.941406 40.1875 C 39.941406 39.871094 39.789063 39.574219 39.53125 39.386719 C 39.273438 39.199219 38.941406 39.144531 38.640625 39.238281 L 36.277344 39.996094 L 34.804688 37.996094 C 34.425781 37.480469 33.570313 37.480469 33.191406 37.996094 L 31.722656 39.996094 L 29.359375 39.238281 C 29.054688 39.144531 28.722656 39.199219 28.46875 39.386719 C 28.210938 39.574219 28.058594 39.871094 28.054688 40.1875 L 28.039063 42.671875 L 25.6875 43.453125 C 25.382813 43.550781 25.148438 43.789063 25.046875 44.09375 C 24.949219 44.394531 25 44.726563 25.1875 44.984375 L 26.632813 47 L 25.1875 49.015625 C 25 49.277344 24.953125 49.605469 25.046875 49.910156 C 25.148438 50.210938 25.382813 50.449219 25.6875 50.550781 L 28 51.316406 L 28 56 L 19 56 C 18.449219 56 18 55.550781 18 55 L 18 48 L 23 48 C 23.554688 48 24 47.554688 24 47 C 24 46.445313 23.554688 46 23 46 L 18 46 L 18 11 C 18 9.003906 17.246094 7.25 15.992188 6 Z M 21 8 C 20.445313 8 20 8.445313 20 9 L 20 11 C 20 11.554688 20.445313 12 21 12 C 21.554688 12 22 11.554688 22 11 L 22 9 C 22 8.445313 21.554688 8 21 8 Z M 26 8 C 25.445313 8 25 8.445313 25 9 L 25 11 C 25 11.554688 25.445313 12 26 12 C 26.554688 12 27 11.554688 27 11 L 27 9 C 27 8.445313 26.554688 8 26 8 Z M 31 8 C 30.445313 8 30 8.445313 30 9 L 30 11 C 30 11.554688 30.445313 12 31 12 C 31.554688 12 32 11.554688 32 11 L 32 9 C 32 8.445313 31.554688 8 31 8 Z M 36 8 C 35.445313 8 35 8.445313 35 9 L 35 11 C 35 11.554688 35.445313 12 36 12 C 36.554688 12 37 11.554688 37 11 L 37 9 C 37 8.445313 36.554688 8 36 8 Z M 41 8 C 40.445313 8 40 8.445313 40 9 L 40 11 C 40 11.554688 40.445313 12 41 12 C 41.554688 12 42 11.554688 42 11 L 42 9 C 42 8.445313 41.554688 8 41 8 Z M 46 8 C 45.445313 8 45 8.445313 45 9 L 45 11 C 45 11.554688 45.445313 12 46 12 C 46.554688 12 47 11.554688 47 11 L 47 9 C 47 8.445313 46.554688 8 46 8 Z M 51 8 C 50.445313 8 50 8.445313 50 9 L 50 11 C 50 11.554688 50.445313 12 51 12 C 51.554688 12 52 11.554688 52 11 L 52 9 C 52 8.445313 51.554688 8 51 8 Z M 56 8 C 55.445313 8 55 8.445313 55 9 L 55 11 C 55 11.554688 55.445313 12 56 12 C 56.554688 12 57 11.554688 57 11 L 57 9 C 57 8.445313 56.554688 8 56 8 Z M 27 22 C 26.445313 22 26 22.445313 26 23 C 26 23.554688 26.445313 24 27 24 L 35 24 C 35.554688 24 36 23.554688 36 23 C 36 22.445313 35.554688 22 35 22 Z M 39 22 C 38.445313 22 38 22.445313 38 23 C 38 23.554688 38.445313 24 39 24 L 51 24 C 51.554688 24 52 23.554688 52 23 C 52 22.445313 51.554688 22 51 22 Z M 27 28 C 26.445313 28 26 28.445313 26 29 C 26 29.554688 26.445313 30 27 30 L 43 30 C 43.554688 30 44 29.554688 44 29 C 44 28.445313 43.554688 28 43 28 Z M 47 28 C 46.445313 28 46 28.445313 46 29 C 46 29.554688 46.445313 30 47 30 L 51 30 C 51.554688 30 52 29.554688 52 29 C 52 28.445313 51.554688 28 51 28 Z M 34 40.273438 L 35.09375 41.753906 C 35.347656 42.101563 35.792969 42.242188 36.199219 42.113281 L 37.953125 41.558594 L 37.964844 43.398438 C 37.96875 43.828125 38.242188 44.207031 38.652344 44.34375 L 40.394531 44.921875 L 39.324219 46.414063 C 39.074219 46.761719 39.074219 47.230469 39.324219 47.578125 L 40.394531 49.078125 L 38.652344 49.65625 C 38.242188 49.792969 37.96875 50.171875 37.964844 50.597656 L 37.953125 52.4375 L 36.199219 51.882813 C 35.792969 51.753906 35.34375 51.898438 35.089844 52.242188 L 34 53.726563 L 32.90625 52.246094 C 32.714844 51.984375 32.414063 51.839844 32.105469 51.839844 C 32 51.839844 31.902344 51.855469 31.800781 51.886719 L 30.046875 52.441406 L 30.035156 50.597656 C 30.03125 50.171875 29.757813 49.792969 29.347656 49.65625 L 27.605469 49.078125 L 28.675781 47.582031 C 28.925781 47.234375 28.925781 46.765625 28.675781 46.417969 L 27.605469 44.921875 L 29.347656 44.34375 C 29.757813 44.207031 30.03125 43.828125 30.035156 43.402344 L 30.046875 41.5625 L 31.800781 42.121094 C 32.207031 42.246094 32.652344 42.105469 32.90625 41.761719 Z M 31.722656 54.003906 L 33.195313 56.003906 C 33.382813 56.261719 33.683594 56.410156 34 56.410156 C 34.320313 56.410156 34.617188 56.261719 34.808594 56.003906 L 36.277344 54.003906 L 38 54.554688 L 38 61.609375 L 34.316406 60.050781 C 34.214844 60.015625 34.105469 60 34 60 C 33.847656 60 33.691406 60.035156 33.550781 60.105469 L 30 61.382813 L 30 54.554688 Z " fill="#ff254c"></path>
</g>
</svg>