<svg xmlns="http://www.w3.org/2000/svg" viewBox="0 0 80 80" style="max-width:100%" height="100%">
    <path style="line-height:normal;text-indent:0;text-align:start;text-decoration-line:none;text-decoration-style:solid;text-decoration-color:#000;text-transform:none;block-progression:tb;isolation:auto;mix-blend-mode:normal" d="M 34 7 C 21.317 7 11 17.317 11 30 C 11 38.594 15.322875 43.241562 18.796875 46.976562 C 21.145875 49.500563 23 51.494 23 54 L 23 55 L 23 56 L 23 64 C 23 66.749516 25.250484 69 28 69 L 29.101562 69 C 29.568451 71.274577 31.592847 73 34 73 C 36.407153 73 38.431548 71.274577 38.898438 69 L 40 69 C 42.749516 69 45 66.749516 45 64 L 45 55 L 45 54 C 45 51.494 46.854125 49.500563 49.203125 46.976562 C 50.559125 45.518563 52.042609 43.917 53.349609 42 L 50.886719 42 C 49.878719 43.312 48.788234 44.487281 47.740234 45.613281 C 45.196234 48.347281 43 50.707 43 54 L 43 55 L 25 55 L 25 54 C 25 50.707 22.804719 48.347281 20.261719 45.613281 C 16.857719 41.955281 13 37.808 13 30 C 13 18.421 22.421 9 34 9 C 35.87 9 37.673391 9.2694687 39.400391 9.7304688 L 41.027344 8.1015625 C 38.810344 7.3885625 36.45 7 34 7 z M 50.623047 7 L 49.160156 10.658203 C 48.403961 10.89336 47.677788 11.193209 46.986328 11.556641 L 43.367188 10.005859 L 40.005859 13.367188 L 41.556641 16.986328 C 41.193119 17.677615 40.893222 18.403384 40.658203 19.160156 L 37 20.623047 L 37 25.376953 L 40.660156 26.839844 C 40.895546 27.596006 41.195791 28.32092 41.558594 29.011719 L 40.005859 32.632812 L 43.367188 35.994141 L 46.986328 34.443359 C 47.677615 34.806881 48.403384 35.106778 49.160156 35.341797 L 50.623047 39 L 55.376953 39 L 56.839844 35.339844 C 57.596006 35.104454 58.32092 34.804209 59.011719 34.441406 L 62.632812 35.994141 L 65.994141 32.632812 L 64.443359 29.013672 C 64.806881 28.322385 65.106778 27.596616 65.341797 26.839844 L 69 25.376953 L 69 24.699219 L 69 20.623047 L 65.339844 19.160156 C 65.104454 18.403994 64.804209 17.67908 64.441406 16.988281 L 65.994141 13.367188 L 62.632812 10.005859 L 59.013672 11.556641 C 58.322385 11.193119 57.596616 10.893222 56.839844 10.658203 L 55.376953 7 L 50.623047 7 z M 51.976562 9 L 54.023438 9 L 55.322266 12.248047 L 55.810547 12.376953 C 56.776356 12.631017 57.686114 13.009359 58.527344 13.5 L 58.962891 13.753906 L 62.175781 12.376953 L 63.623047 13.824219 L 62.246094 17.037109 L 62.498047 17.472656 C 62.988003 18.314282 63.367907 19.224995 63.623047 20.191406 L 63.751953 20.677734 L 67 21.976562 L 67 24.023438 L 63.751953 25.322266 L 63.623047 25.810547 C 63.368983 26.776356 62.990641 27.686114 62.5 28.527344 L 62.246094 28.962891 L 63.623047 32.175781 L 62.175781 33.623047 L 58.962891 32.246094 L 58.527344 32.498047 C 57.685718 32.988003 56.775005 33.367907 55.808594 33.623047 L 55.322266 33.751953 L 54.023438 37 L 51.976562 37 L 50.677734 33.751953 L 50.189453 33.623047 C 49.223644 33.368983 48.313886 32.990641 47.472656 32.5 L 47.037109 32.246094 L 43.824219 33.623047 L 42.376953 32.175781 L 43.753906 28.962891 L 43.501953 28.527344 C 43.011997 27.685718 42.632093 26.775005 42.376953 25.808594 L 42.248047 25.322266 L 39 24.023438 L 39 21.976562 L 42.248047 20.677734 L 42.376953 20.189453 C 42.631017 19.223644 43.009359 18.313886 43.5 17.472656 L 43.753906 17.037109 L 42.376953 13.824219 L 43.824219 12.376953 L 47.037109 13.753906 L 47.472656 13.5 C 48.313418 13.009632 49.224423 12.632244 50.191406 12.376953 L 50.677734 12.248047 L 51.976562 9 z M 34 12 A 1 1 0 0 0 33 13 A 1 1 0 0 0 34 14 A 1 1 0 0 0 35 13 A 1 1 0 0 0 34 12 z M 29.599609 12.578125 A 1 1 0 0 0 28.599609 13.578125 A 1 1 0 0 0 29.599609 14.578125 A 1 1 0 0 0 30.599609 13.578125 A 1 1 0 0 0 29.599609 12.578125 z M 25.498047 14.277344 A 1 1 0 0 0 24.498047 15.277344 A 1 1 0 0 0 25.498047 16.277344 A 1 1 0 0 0 26.498047 15.277344 A 1 1 0 0 0 25.498047 14.277344 z M 21.978516 16.978516 A 1 1 0 0 0 20.978516 17.978516 A 1 1 0 0 0 21.978516 18.978516 A 1 1 0 0 0 22.978516 17.978516 A 1 1 0 0 0 21.978516 16.978516 z M 53 17 C 49.698136 17 47 19.698136 47 23 C 47 26.301864 49.698136 29 53 29 C 56.301864 29 59 26.301864 59 23 C 59 19.698136 56.301864 17 53 17 z M 53 19 C 55.220984 19 57 20.779016 57 23 C 57 25.220984 55.220984 27 53 27 C 50.779016 27 49 25.220984 49 23 C 49 20.779016 50.779016 19 53 19 z M 19.277344 20.5 A 1 1 0 0 0 18.277344 21.5 A 1 1 0 0 0 19.277344 22.5 A 1 1 0 0 0 20.277344 21.5 A 1 1 0 0 0 19.277344 20.5 z M 17.578125 24.599609 A 1 1 0 0 0 16.578125 25.599609 A 1 1 0 0 0 17.578125 26.599609 A 1 1 0 0 0 18.578125 25.599609 A 1 1 0 0 0 17.578125 24.599609 z M 17 29 A 1 1 0 0 0 16 30 A 1 1 0 0 0 17 31 A 1 1 0 0 0 18 30 A 1 1 0 0 0 17 29 z M 17.578125 33.400391 A 1 1 0 0 0 16.578125 34.400391 A 1 1 0 0 0 17.578125 35.400391 A 1 1 0 0 0 18.578125 34.400391 A 1 1 0 0 0 17.578125 33.400391 z M 19.277344 37.498047 A 1 1 0 0 0 18.277344 38.498047 A 1 1 0 0 0 19.277344 39.498047 A 1 1 0 0 0 20.277344 38.498047 A 1 1 0 0 0 19.277344 37.498047 z M 21.978516 41.021484 A 1 1 0 0 0 20.978516 42.021484 A 1 1 0 0 0 21.978516 43.021484 A 1 1 0 0 0 22.978516 42.021484 A 1 1 0 0 0 21.978516 41.021484 z M 25 57 L 43 57 L 43 59 L 31 59 L 31 61 L 43 61 L 43 63 L 31 63 L 31 65 L 42.818359 65 C 42.408769 66.167075 41.314849 67 40 67 L 28 67 C 26.685151 67 25.591231 66.167075 25.181641 65 L 29 65 L 29 63 L 25 63 L 25 61 L 29 61 L 29 59 L 25 59 L 25 57 z M 31.181641 69 L 36.818359 69 C 36.408769 70.167075 35.314849 71 34 71 C 32.685151 71 31.591231 70.167075 31.181641 69 z" fill="#ff254c"></path>
</svg>