<svg class="si645f2a084753d2000f8bdd84db333652923449e881da64be5f5cadab1683958289122 svgIcon_1J7 outlined_2wD darkTheme_3jZ" viewBox="0 0 32 32" style="border-radius: 4px">
  <path class="outer_bDW" fill="#FFFFFF" stroke="#333" d="M5,0 L27,0 C29.7614237,0 32,2.23857625 32,5 L32,27 C32,29.7614237 29.7614237,32 27,32 L5,32 C2.23857625,32 0,29.7614237 0,27 L0,5 C0,2.23857625 2.23857625,0 5,0 Z M13.6383065,25 L16.9133212,25 L16.9133212,16.0044 L19.3701815,16.0044 L19.8560792,13.1936 L16.9133212,13.1936 L16.9133212,11.1568001 C16.9133212,10.5002 17.3378823,9.81079996 17.944655,9.81079996 L19.6171262,9.81079996 L19.6171262,7 L17.567445,7 L17.567445,7.0126 C14.3603601,7.129 13.7014413,8.98640001 13.6443004,10.9374 L13.6383065,10.9374 L13.6383065,13.1936 L12,13.1936 L12,16.0044 L13.6383065,16.0044 L13.6383065,25 Z"></path>
</svg>
