<svg xmlns="http://www.w3.org/2000/svg" viewBox="0 0 80 80" style="max-width:100%" height="100%">
    <path style="line-height:normal;text-indent:0;text-align:start;text-decoration-line:none;text-decoration-style:solid;text-decoration-color:#000;text-transform:none;block-progression:tb;isolation:auto;mix-blend-mode:normal" d="M 27 7 C 26.449 7 26 7.449 26 8 C 26 8.551 26.449 9 27 9 C 27.551 9 28 8.551 28 8 C 28 7.449 27.551 7 27 7 z M 40 7 C 35.592874 7 32 10.592874 32 15 C 32 17.935513 33.631447 20.452449 36 21.841797 L 36 25 C 36 26.37066 36.94553 27.528978 38.210938 27.880859 C 38.537126 28.542191 39.212398 29 40 29 C 40.787602 29 41.462874 28.542191 41.789062 27.880859 C 43.05447 27.528978 44 26.37066 44 25 L 44 21.841797 C 46.088277 20.616853 47.531146 18.502112 47.853516 16 L 48 16 L 48 15 C 48 10.592874 44.407126 7 40 7 z M 53 7 C 52.449 7 52 7.449 52 8 C 52 8.551 52.449 9 53 9 C 53.551 9 54 8.551 54 8 C 54 7.449 53.551 7 53 7 z M 30 9 C 29.449 9 29 9.449 29 10 C 29 10.551 29.449 11 30 11 C 30.551 11 31 10.551 31 10 C 31 9.449 30.551 9 30 9 z M 40 9 C 43.326874 9 46 11.673126 46 15 C 46 17.397701 44.596351 19.449486 42.570312 20.414062 L 42 20.683594 L 42 22 L 40 22 L 40 24 L 42 24 L 42 25 C 42 25.56503 41.56503 26 41 26 L 39 26 C 38.43497 26 38 25.56503 38 25 L 38 20.683594 L 37.429688 20.414062 C 35.403649 19.449488 34 17.397701 34 15 C 34 11.673126 36.673126 9 40 9 z M 50 9 C 49.449 9 49 9.449 49 10 C 49 10.551 49.449 11 50 11 C 50.551 11 51 10.551 51 10 C 51 9.449 50.551 9 50 9 z M 25 14 C 24.449 14 24 14.449 24 15 C 24 15.551 24.449 16 25 16 C 25.551 16 26 15.551 26 15 C 26 14.449 25.551 14 25 14 z M 29 14 C 28.449 14 28 14.449 28 15 C 28 15.551 28.449 16 29 16 C 29.551 16 30 15.551 30 15 C 30 14.449 29.551 14 29 14 z M 51 14 C 50.449 14 50 14.449 50 15 C 50 15.551 50.449 16 51 16 C 51.551 16 52 15.551 52 15 C 52 14.449 51.551 14 51 14 z M 55 14 C 54.449 14 54 14.449 54 15 C 54 15.551 54.449 16 55 16 C 55.551 16 56 15.551 56 15 C 56 14.449 55.551 14 55 14 z M 30 19 C 29.449 19 29 19.449 29 20 C 29 20.551 29.449 21 30 21 C 30.551 21 31 20.551 31 20 C 31 19.449 30.551 19 30 19 z M 50 19 C 49.449 19 49 19.449 49 20 C 49 20.551 49.449 21 50 21 C 50.551 21 51 20.551 51 20 C 51 19.449 50.551 19 50 19 z M 27 21 C 26.449 21 26 21.449 26 22 C 26 22.551 26.449 23 27 23 C 27.551 23 28 22.551 28 22 C 28 21.449 27.551 21 27 21 z M 53 21 C 52.449 21 52 21.449 52 22 C 52 22.551 52.449 23 53 23 C 53.551 23 54 22.551 54 22 C 54 21.449 53.551 21 53 21 z M 18 28 C 13.592874 28 10 31.592874 10 36 C 10 40.407126 13.592874 44 18 44 C 22.407126 44 26 40.407126 26 36 L 26 35 L 25.796875 35 C 25.282076 31.084164 22.052768 28 18 28 z M 62 28 C 57.592874 28 54 31.592874 54 36 C 54 40.407126 57.592874 44 62 44 C 62.275445 44 62.548001 43.986375 62.816406 43.958984 C 64.695246 43.767248 66.384373 42.920314 67.652344 41.652344 C 69.101453 40.203235 70 38.203563 70 36 L 70 35 L 69.796875 35 C 69.282076 31.084164 66.052768 28 62 28 z M 18 30 C 21.326874 30 24 32.673126 24 36 C 24 39.326874 21.326874 42 18 42 C 14.673126 42 12 39.326874 12 36 C 12 32.673126 14.673126 30 18 30 z M 62 30 C 65.326874 30 68 32.673126 68 36 C 68 39.326874 65.326874 42 62 42 C 58.673126 42 56 39.326874 56 36 C 56 35.79207 56.010859 35.587095 56.03125 35.384766 C 56.337112 32.349828 58.881056 30 62 30 z M 40 35 C 35.041484 35 31 39.041484 31 44 C 31 48.958516 35.041484 53 40 53 C 44.958516 53 49 48.958516 49 44 L 49 43 L 48.796875 43 C 48.275261 38.532432 44.604108 35 40 35 z M 40 37 C 43.877484 37 47 40.122516 47 44 C 47 47.877484 43.877484 51 40 51 C 36.122516 51 33 47.877484 33 44 C 33 40.122516 36.122516 37 40 37 z M 18 46 C 10.306206 46 4 52.306206 4 60 L 4 64 L 26.269531 64 C 25.457834 65.84109 25 67.868987 25 70 L 25 74 L 55 74 L 55 71 L 55 70 C 55 67.868987 54.542166 65.84109 53.730469 64 L 76 64 L 76 60 C 76 52.306206 69.693794 46 62 46 C 55.158556 46 49.446319 50.988522 48.257812 57.503906 C 45.884282 55.926028 43.045242 55 40 55 C 36.954758 55 34.115718 55.926028 31.742188 57.503906 C 30.553681 50.988522 24.841444 46 18 46 z M 18 48 C 24.245162 48 29.37815 52.832416 29.921875 58.941406 C 28.934708 59.842395 28.067924 60.868215 27.347656 62 L 6 62 L 6 60 C 6 53.397794 11.397794 48 18 48 z M 62 48 C 68.602206 48 74 53.397794 74 60 L 74 62 L 52.652344 62 C 51.932076 60.868215 51.065292 59.842395 50.078125 58.941406 C 50.62185 52.832416 55.754838 48 62 48 z M 40 57 C 47.153388 57 53 62.846612 53 70 L 53 72 L 27 72 L 27 70 C 27 62.846612 32.846612 57 40 57 z M 8 58 C 7.449 58 7 58.449 7 59 C 7 59.551 7.449 60 8 60 C 8.551 60 9 59.551 9 59 C 9 58.449 8.551 58 8 58 z M 12 58 C 11.449 58 11 58.449 11 59 C 11 59.551 11.449 60 12 60 C 12.551 60 13 59.551 13 59 C 13 58.449 12.551 58 12 58 z M 16 58 C 15.449 58 15 58.449 15 59 C 15 59.551 15.449 60 16 60 C 16.551 60 17 59.551 17 59 C 17 58.449 16.551 58 16 58 z M 20 58 C 19.449 58 19 58.449 19 59 C 19 59.551 19.449 60 20 60 C 20.551 60 21 59.551 21 59 C 21 58.449 20.551 58 20 58 z M 24 58 C 23.449 58 23 58.449 23 59 C 23 59.551 23.449 60 24 60 C 24.551 60 25 59.551 25 59 C 25 58.449 24.551 58 24 58 z M 28 58 C 27.449 58 27 58.449 27 59 C 27 59.551 27.449 60 28 60 C 28.551 60 29 59.551 29 59 C 29 58.449 28.551 58 28 58 z M 52 58 C 51.449 58 51 58.449 51 59 C 51 59.551 51.449 60 52 60 C 52.551 60 53 59.551 53 59 C 53 58.449 52.551 58 52 58 z M 56 58 C 55.449 58 55 58.449 55 59 C 55 59.551 55.449 60 56 60 C 56.551 60 57 59.551 57 59 C 57 58.449 56.551 58 56 58 z M 60 58 C 59.449 58 59 58.449 59 59 C 59 59.551 59.449 60 60 60 C 60.551 60 61 59.551 61 59 C 61 58.449 60.551 58 60 58 z M 64 58 C 63.449 58 63 58.449 63 59 C 63 59.551 63.449 60 64 60 C 64.551 60 65 59.551 65 59 C 65 58.449 64.551 58 64 58 z M 68 58 C 67.449 58 67 58.449 67 59 C 67 59.551 67.449 60 68 60 C 68.551 60 69 59.551 69 59 C 69 58.449 68.551 58 68 58 z M 72 58 C 71.449 58 71 58.449 71 59 C 71 59.551 71.449 60 72 60 C 72.551 60 73 59.551 73 59 C 73 58.449 72.551 58 72 58 z M 30 68 C 29.449 68 29 68.449 29 69 C 29 69.551 29.449 70 30 70 C 30.551 70 31 69.551 31 69 C 31 68.449 30.551 68 30 68 z M 34 68 C 33.449 68 33 68.449 33 69 C 33 69.551 33.449 70 34 70 C 34.551 70 35 69.551 35 69 C 35 68.449 34.551 68 34 68 z M 38 68 C 37.449 68 37 68.449 37 69 C 37 69.551 37.449 70 38 70 C 38.551 70 39 69.551 39 69 C 39 68.449 38.551 68 38 68 z M 42 68 C 41.449 68 41 68.449 41 69 C 41 69.551 41.449 70 42 70 C 42.551 70 43 69.551 43 69 C 43 68.449 42.551 68 42 68 z M 46 68 C 45.449 68 45 68.449 45 69 C 45 69.551 45.449 70 46 70 C 46.551 70 47 69.551 47 69 C 47 68.449 46.551 68 46 68 z M 50 68 C 49.449 68 49 68.449 49 69 C 49 69.551 49.449 70 50 70 C 50.551 70 51 69.551 51 69 C 51 68.449 50.551 68 50 68 z" fill="#ff254c"></path>
</svg>