<svg width="370" height="370" viewBox="0 0 370 370" fill="none" xmlns="http://www.w3.org/2000/svg">
<g clip-path="url(#clip0)">
<path d="M344.082 189.904C338.645 181.12 334.7 173.828 329.22 160.118C319.967 136.962 385.51 116.046 358.943 75.8334C370.456 103.615 317.579 120.779 312.675 143.913C308.176 165.192 344.06 189.904 344.082 189.904Z" fill="#d6d6d7"/>
<path d="M345.339 148.263C344.294 161.994 357.492 169.329 357.876 179.35C358.196 187.516 349.987 194.318 349.987 194.318C349.987 194.318 364.87 191.396 369.518 178.945C374.678 165.107 359.518 155.64 361.075 144.574C362.524 133.977 393.995 114.319 393.995 114.319C393.995 114.319 347.706 117.368 345.339 148.263Z" fill="#d6d6d7"/>
<path d="M373.995 203.528C373.995 203.528 384.592 195.98 387.407 193.145C361.416 198.667 302.056 199.413 302.056 194.616C302.056 190.202 321.203 185.682 321.203 185.682C321.203 185.682 278.773 185.064 278.773 197.58C278.773 210.628 334.316 211.567 373.995 203.528Z" fill="#d6d6d7"/>
<path d="M367.471 215.405C342.866 223.592 297.536 220.97 310.969 209.989C304.423 209.989 294.722 215.234 294.722 220.309C294.722 230.436 343.761 238.261 380.051 223.422L367.471 215.405Z" fill="#d6d6d7"/>
<path d="M317.002 232.697C308.069 232.697 302.291 238.453 302.291 242.654C302.291 255.703 355.552 257.003 376.66 243.762L363.249 234.85C347.471 241.78 307.877 242.739 317.002 232.697Z" fill="#d6d6d7"/>
<path d="M413.035 253.954C413.035 248.837 407.278 246.428 405.21 245.276C417.363 274.615 283.4 272.333 283.4 255.02C283.4 251.076 293.272 247.238 302.376 249.05L294.636 244.466C276.47 241.63 264.125 249.604 264.125 256.044C264.125 286.086 413.035 284.636 413.035 253.954Z" fill="#d6d6d7"/>
<path d="M427.875 264.722C405.253 287.067 347.855 295.211 290.159 281.395C347.855 305.979 427.598 292.141 427.875 264.722Z" fill="#d6d6d7"/>
</g>
<defs>
<clipPath id="clip0">
<rect width="370" height="370" fill="white"/>
</clipPath>
</defs>
</svg>
