<svg width="370" height="370" viewBox="0 0 370 335" fill="none" xmlns="http://www.w3.org/2000/svg">
<g clip-path="url(#clip0)">
<path d="M293 135C289.558 135 286.75 132.192 286.75 128.75C286.75 125.308 289.558 122.5 293 122.5C296.442 122.5 299.25 125.308 299.25 128.75C299.25 132.192 296.442 135 293 135Z" fill="#d6d6d7"/>
<path d="M311.75 135C308.308 135 305.5 132.192 305.5 128.75C305.5 125.308 308.308 122.5 311.75 122.5C315.192 122.5 318 125.308 318 128.75C318 132.192 315.192 135 311.75 135Z" fill="#d6d6d7"/>
<path d="M330.5 135C327.058 135 324.25 132.192 324.25 128.75C324.25 125.308 327.058 122.5 330.5 122.5C333.942 122.5 336.75 125.308 336.75 128.75C336.75 132.192 333.942 135 330.5 135Z" fill="#d6d6d7"/>
<path d="M402.375 110H283.625C275.007 110 268 117.007 268 125.625V244.375C268 252.993 275.007 260 283.625 260H402.375C410.993 260 418 252.993 418 244.375V125.625C418 117.007 410.993 110 402.375 110ZM283.625 116.25H402.375C407.539 116.25 411.75 120.461 411.75 125.625V141.25H274.25V125.625C274.25 120.461 278.461 116.25 283.625 116.25ZM402.375 253.75H283.625C278.461 253.75 274.25 249.539 274.25 244.375V147.5H411.75V244.375C411.75 249.539 407.539 253.75 402.375 253.75Z" fill="#d6d6d7"/>
<path d="M315.412 173.269L293.11 192.788C291.743 193.972 290.974 195.693 290.974 197.5C290.974 199.307 291.743 201.028 293.11 202.212L315.412 221.731L319.526 217.019L297.224 197.488L319.526 177.981L315.412 173.269Z" fill="#d6d6d7"/>
<path d="M372.773 173.391L368.415 177.859L388.52 197.512L368.415 217.141L372.773 221.609L392.89 201.98C394.099 200.796 394.77 199.209 394.77 197.5C394.77 195.803 394.099 194.204 392.89 193.02L372.773 173.391Z" fill="#d6d6d7"/>
<path d="M327.558 237.063L333.442 239.187L361.567 161.062L355.683 158.938L327.558 237.063Z" fill="#d6d6d7"/>
</g>
<defs>
<clipPath id="clip0">
<rect width="370" height="370" fill="white"/>
</clipPath>
</defs>
</svg>
