<svg width="370" height="370" viewBox="0 0 370 370" fill="none" xmlns="http://www.w3.org/2000/svg">
<g clip-path="url(#clip0)">
<path d="M324.75 87.125L321.875 89.875L289.875 121.875L287.125 124.75L289.875 127.625L352.375 190.125L302.25 240.25C301.734 240.719 301.344 241.328 301.125 242L293.125 272C292.766 273.375 293.172 274.828 294.172 275.828C295.172 276.828 296.625 277.234 298 276.875L328 268.875C328.672 268.656 329.281 268.266 329.75 267.75L468 129.5C467.984 129.516 471.25 126.25 471.25 126.25C478.859 118.641 478.844 106.344 471.25 98.75C463.641 91.1406 451.359 91.1563 443.75 98.75L390.125 152.375L327.625 89.875L324.75 87.125ZM324.75 98.5L331.25 105L326.125 110.125L331.875 115.875L337 110.75L343.25 117L334.125 126.125L339.875 131.875L349 122.75L355.25 129L350.125 134.125L355.875 139.875L361 134.75L367.25 141L358.125 150.125L363.875 155.875L373 146.75L379.25 153L374.125 158.125L379.25 163.25L358.125 184.375L298.5 124.75L324.75 98.5ZM446.125 107.625L462.375 123.875L324.875 261.375L308.625 245.125L446.125 107.625ZM421 183.375L418.125 186.125L410.125 194.125L415.875 199.875L421 194.75L427.25 201L418.125 210.125L423.875 215.875L433 206.75L439.25 213L434.125 218.125L439.875 223.875L445 218.75L451.25 225L442.125 234.125L447.875 239.875L457 230.75L463.25 237L458.125 242.125L463.875 247.875L469 242.75L471.5 245.25L445.25 271.5L389 215.375L383.375 221L442.375 280.125L445.25 282.875L448.125 280.125L480.125 248.125L482.875 245.25L480.125 242.375L421 183.375Z" fill="#333333"/>
</g>
<defs>
<clipPath id="clip0">
<rect width="370" height="370" fill="white"/>
</clipPath>
</defs>
</svg>
