<svg width="1920" height="710" viewBox="0 0 1920 710" fill="none" xmlns="http://www.w3.org/2000/svg">
<g clip-path="url(#clip0)">
<rect width="1920" height="710" fill="white"/>
<g opacity="0.58">
<path opacity="0.58" d="M269.93 303L529.137 562.153" stroke="#F3F6FB" stroke-width="5" stroke-miterlimit="10"/>
<path opacity="0.58" d="M254.987 303L514.194 562.153" stroke="#F3F6FB" stroke-width="5" stroke-miterlimit="10"/>
<path opacity="0.58" d="M240.044 303L499.134 562.153" stroke="#F3F6FB" stroke-width="5" stroke-miterlimit="10"/>
<path opacity="0.58" d="M225.101 303L484.191 562.153" stroke="#F3F6FB" stroke-width="5" stroke-miterlimit="10"/>
<path opacity="0.58" d="M210.041 303L469.248 562.153" stroke="#F3F6FB" stroke-width="5" stroke-miterlimit="10"/>
<path opacity="0.58" d="M195.098 303L454.305 562.153" stroke="#F3F6FB" stroke-width="5" stroke-miterlimit="10"/>
<path opacity="0.58" d="M180.155 303L439.362 562.153" stroke="#F3F6FB" stroke-width="5" stroke-miterlimit="10"/>
<path opacity="0.58" d="M165.212 303L424.419 562.153" stroke="#F3F6FB" stroke-width="5" stroke-miterlimit="10"/>
<path opacity="0.58" d="M150.269 303L409.358 562.153" stroke="#F3F6FB" stroke-width="5" stroke-miterlimit="10"/>
<path opacity="0.58" d="M135.326 303L394.415 562.153" stroke="#F3F6FB" stroke-width="5" stroke-miterlimit="10"/>
<path opacity="0.58" d="M120.265 303L379.473 562.153" stroke="#F3F6FB" stroke-width="5" stroke-miterlimit="10"/>
<path opacity="0.58" d="M105.322 303L364.53 562.153" stroke="#F3F6FB" stroke-width="5" stroke-miterlimit="10"/>
<path opacity="0.58" d="M90.3794 303L349.587 562.153" stroke="#F3F6FB" stroke-width="5" stroke-miterlimit="10"/>
<path opacity="0.58" d="M75.4365 303L334.644 562.153" stroke="#F3F6FB" stroke-width="5" stroke-miterlimit="10"/>
<path opacity="0.58" d="M60.4934 303L319.583 562.153" stroke="#F3F6FB" stroke-width="5" stroke-miterlimit="10"/>
<path opacity="0.58" d="M45.5506 303L304.64 562.153" stroke="#F3F6FB" stroke-width="5" stroke-miterlimit="10"/>
<path opacity="0.58" d="M30.4901 303L289.697 562.153" stroke="#F3F6FB" stroke-width="5" stroke-miterlimit="10"/>
<path opacity="0.58" d="M15.5471 303L274.754 562.153" stroke="#F3F6FB" stroke-width="5" stroke-miterlimit="10"/>
<path opacity="0.58" d="M0.604191 303L259.811 562.153" stroke="#F3F6FB" stroke-width="5" stroke-miterlimit="10"/>
<path opacity="0.58" d="M-14.3388 303L244.868 562.153" stroke="#F3F6FB" stroke-width="5" stroke-miterlimit="10"/>
<path opacity="0.58" d="M-29.2818 303L229.925 562.153" stroke="#F3F6FB" stroke-width="5" stroke-miterlimit="10"/>
<path opacity="0.58" d="M-44.2247 303L214.865 562.153" stroke="#F3F6FB" stroke-width="5" stroke-miterlimit="10"/>
<path opacity="0.58" d="M-59.2852 303L199.922 562.153" stroke="#F3F6FB" stroke-width="5" stroke-miterlimit="10"/>
<path opacity="0.58" d="M-74.2283 303L184.979 562.153" stroke="#F3F6FB" stroke-width="5" stroke-miterlimit="10"/>
<path opacity="0.58" d="M-89.1712 303L170.036 562.153" stroke="#F3F6FB" stroke-width="5" stroke-miterlimit="10"/>
<path opacity="0.58" d="M-104.114 303L155.093 562.153" stroke="#F3F6FB" stroke-width="5" stroke-miterlimit="10"/>
<path opacity="0.58" d="M-119.057 303L140.15 562.153" stroke="#F3F6FB" stroke-width="5" stroke-miterlimit="10"/>
<path opacity="0.58" d="M-134 303L125.089 562.153" stroke="#F3F6FB" stroke-width="5" stroke-miterlimit="10"/>
</g>
<path fill-rule="evenodd" clip-rule="evenodd" d="M88 432C16.7553 432 -41 374.245 -41 303C-41 231.755 16.7553 174 88 174C159.245 174 217 231.755 217 303C217 374.245 159.245 432 88 432ZM87.9999 406.104C31.0571 406.104 -15.1042 359.943 -15.1042 303C-15.1042 246.057 31.0571 199.896 87.9999 199.896C144.943 199.896 191.104 246.057 191.104 303C191.104 359.943 144.943 406.104 87.9999 406.104Z" fill="#F3F6FB"/>
<path fill-rule="evenodd" clip-rule="evenodd" d="M1956.3 103L1654 302.599L1844.09 590.504L2146.39 390.905L1956.3 103ZM1945.38 150.567L1702.03 311.242L1855.01 542.937L2098.36 382.262L1945.38 150.567Z" fill="#F3F6FB"/>
</g>
<defs>
<clipPath id="clip0">
<rect width="1920" height="710" fill="white"/>
</clipPath>
</defs>
</svg>
