<svg width="1920" height="710" viewBox="0 0 1920 710" fill="none" xmlns="http://www.w3.org/2000/svg">
<g clip-path="url(#clip0)">
<rect width="1920" height="710" fill="white"/>
<path d="M1711.41 560.005C1710.96 558.11 1709.06 556.936 1707.17 557.384C1705.27 557.831 1704.1 559.73 1704.55 561.625C1704.99 563.521 1706.89 564.694 1708.79 564.247C1710.68 563.799 1711.86 561.9 1711.41 560.005Z" fill="#E3E6EB"/>
<path d="M1707.98 534.882C1706.04 534.872 1704.45 536.443 1704.44 538.39C1704.43 540.337 1706 541.924 1707.95 541.934C1709.9 541.944 1711.48 540.373 1711.49 538.426C1711.5 536.479 1709.93 534.892 1707.98 534.882Z" fill="#E3E6EB"/>
<path d="M1722.6 548.823C1722.15 546.928 1720.25 545.754 1718.36 546.202C1716.46 546.649 1715.29 548.548 1715.74 550.443C1716.18 552.338 1718.08 553.512 1719.98 553.064C1721.87 552.617 1723.05 550.718 1722.6 548.823Z" fill="#E3E6EB"/>
<path d="M1711.56 516C1711.56 513.791 1709.99 512 1708.06 512C1706.13 512 1704.56 513.791 1704.56 516C1704.56 518.209 1706.13 520 1708.06 520C1709.99 520 1711.56 518.209 1711.56 516Z" fill="#E3E6EB"/>
<path d="M1722.6 526.416C1722.15 524.521 1720.25 523.35 1718.36 523.799C1716.46 524.249 1715.29 526.149 1715.74 528.044C1716.19 529.939 1718.09 531.11 1719.99 530.661C1721.88 530.211 1723.05 528.311 1722.6 526.416Z" fill="#E3E6EB"/>
<path d="M1710.48 491.108C1709.1 489.731 1706.87 489.731 1705.49 491.108C1704.12 492.485 1704.12 494.717 1705.49 496.094C1706.87 497.471 1709.1 497.471 1710.48 496.094C1711.86 494.717 1711.86 492.485 1710.48 491.108Z" fill="#E3E6EB"/>
<path d="M1721.52 502.174C1720.06 500.877 1717.84 501.002 1716.54 502.454C1715.24 503.906 1715.37 506.135 1716.82 507.432C1718.27 508.73 1720.5 508.605 1721.8 507.153C1723.09 505.701 1722.97 503.472 1721.52 502.174Z" fill="#E3E6EB"/>
<path d="M1732.87 558.324C1731.49 556.947 1729.26 556.947 1727.88 558.324C1726.51 559.701 1726.51 561.934 1727.88 563.311C1729.26 564.688 1731.49 564.688 1732.87 563.311C1734.25 561.934 1734.25 559.701 1732.87 558.324Z" fill="#E3E6EB"/>
<path d="M1730.43 534.889C1728.48 534.86 1726.88 536.415 1726.85 538.362C1726.82 540.309 1728.38 541.912 1730.32 541.941C1732.27 541.97 1733.87 540.415 1733.9 538.468C1733.93 536.521 1732.37 534.919 1730.43 534.889Z" fill="#E3E6EB"/>
<path d="M1742.94 546.381C1741.14 545.636 1739.07 546.49 1738.33 548.289C1737.58 550.089 1738.44 552.151 1740.24 552.896C1742.04 553.642 1744.1 552.787 1744.84 550.988C1745.59 549.189 1744.73 547.126 1742.94 546.381Z" fill="#E3E6EB"/>
<path d="M1733.56 516C1733.56 513.791 1731.99 512 1730.06 512C1728.13 512 1726.56 513.791 1726.56 516C1726.56 518.209 1728.13 520 1730.06 520C1731.99 520 1733.56 518.209 1733.56 516Z" fill="#E3E6EB"/>
<path d="M1742.93 523.971C1741.13 523.231 1739.07 524.092 1738.33 525.893C1737.59 527.694 1738.45 529.754 1740.25 530.494C1742.05 531.234 1744.11 530.374 1744.85 528.573C1745.59 526.771 1744.73 524.711 1742.93 523.971Z" fill="#E3E6EB"/>
<path d="M1733.82 492.794C1733.37 490.899 1731.47 489.727 1729.57 490.177C1727.68 490.627 1726.51 492.527 1726.96 494.422C1727.41 496.317 1729.31 497.488 1731.2 497.039C1733.1 496.589 1734.27 494.688 1733.82 492.794Z" fill="#E3E6EB"/>
<path d="M1745.06 504.274C1744.77 502.348 1742.97 501.02 1741.05 501.309C1739.12 501.597 1737.79 503.392 1738.08 505.318C1738.37 507.244 1740.16 508.572 1742.09 508.283C1744.02 507.995 1745.34 506.2 1745.06 504.274Z" fill="#E3E6EB"/>
<path d="M1755.27 558.33C1753.9 556.953 1751.66 556.953 1750.29 558.33C1748.91 559.707 1748.91 561.939 1750.29 563.316C1751.66 564.693 1753.9 564.693 1755.27 563.316C1756.65 561.939 1756.65 559.707 1755.27 558.33Z" fill="#E3E6EB"/>
<path d="M1752.84 534.896C1750.89 534.867 1749.29 536.422 1749.26 538.369C1749.23 540.316 1750.78 541.918 1752.73 541.947C1754.68 541.977 1756.28 540.422 1756.31 538.475C1756.34 536.527 1754.78 534.925 1752.84 534.896Z" fill="#E3E6EB"/>
<path d="M1766.5 547.13C1765.12 545.753 1762.89 545.753 1761.51 547.13C1760.13 548.507 1760.13 550.739 1761.51 552.116C1762.89 553.493 1765.12 553.493 1766.5 552.116C1767.88 550.739 1767.88 548.507 1766.5 547.13Z" fill="#E3E6EB"/>
<path d="M1756.56 516C1756.56 513.791 1754.99 512 1753.06 512C1751.13 512 1749.56 513.791 1749.56 516C1749.56 518.209 1751.13 520 1753.06 520C1754.99 520 1756.56 518.209 1756.56 516Z" fill="#E3E6EB"/>
<path d="M1766.5 524.726C1765.13 523.349 1762.89 523.349 1761.52 524.726C1760.14 526.103 1760.14 528.336 1761.52 529.713C1762.89 531.09 1765.13 531.09 1766.5 529.713C1767.88 528.336 1767.88 526.103 1766.5 524.726Z" fill="#E3E6EB"/>
<path d="M1756.22 492.796C1755.77 490.901 1753.87 489.729 1751.98 490.179C1750.08 490.629 1748.91 492.529 1749.36 494.424C1749.81 496.319 1751.71 497.49 1753.6 497.041C1755.5 496.591 1756.67 494.69 1756.22 492.796Z" fill="#E3E6EB"/>
<path d="M1767.45 504.032C1767.02 502.131 1765.14 500.932 1763.24 501.354C1761.34 501.777 1760.14 503.66 1760.56 505.561C1760.98 507.462 1762.87 508.661 1764.77 508.238C1766.67 507.816 1767.87 505.933 1767.45 504.032Z" fill="#E3E6EB"/>
<path d="M1777.68 558.335C1776.3 556.958 1774.07 556.958 1772.69 558.335C1771.31 559.712 1771.31 561.944 1772.69 563.321C1774.07 564.698 1776.3 564.698 1777.68 563.321C1779.05 561.944 1779.05 559.712 1777.68 558.335Z" fill="#E3E6EB"/>
<path d="M1775.25 534.903C1773.3 534.873 1771.7 536.428 1771.67 538.375C1771.64 540.323 1773.19 541.925 1775.14 541.954C1777.09 541.983 1778.69 540.428 1778.72 538.481C1778.75 536.534 1777.19 534.932 1775.25 534.903Z" fill="#E3E6EB"/>
<path d="M1789.83 548.817C1789.39 546.922 1787.49 545.748 1785.59 546.196C1783.7 546.643 1782.52 548.542 1782.97 550.437C1783.42 552.333 1785.32 553.506 1787.21 553.059C1789.11 552.611 1790.28 550.712 1789.83 548.817Z" fill="#E3E6EB"/>
<path d="M1778.56 516C1778.56 513.791 1776.99 512 1775.06 512C1773.13 512 1771.56 513.791 1771.56 516C1771.56 518.209 1773.13 520 1775.06 520C1776.99 520 1778.56 518.209 1778.56 516Z" fill="#E3E6EB"/>
<path d="M1789.84 526.413C1789.39 524.518 1787.49 523.347 1785.6 523.796C1783.7 524.246 1782.53 526.146 1782.98 528.041C1783.43 529.936 1785.33 531.107 1787.22 530.658C1789.12 530.208 1790.29 528.308 1789.84 526.413Z" fill="#E3E6EB"/>
<path d="M1778.62 492.797C1778.17 490.902 1776.27 489.731 1774.38 490.181C1772.48 490.63 1771.31 492.531 1771.76 494.425C1772.21 496.32 1774.11 497.492 1776.01 497.042C1777.9 496.592 1779.07 494.692 1778.62 492.797Z" fill="#E3E6EB"/>
<path d="M1788.75 502.169C1787.3 500.872 1785.07 500.997 1783.77 502.449C1782.48 503.901 1782.6 506.13 1784.05 507.427C1785.5 508.725 1787.73 508.6 1789.03 507.148C1790.33 505.696 1790.2 503.467 1788.75 502.169Z" fill="#E3E6EB"/>
<path d="M1801.04 560C1800.6 558.105 1798.7 556.932 1796.8 557.379C1794.91 557.827 1793.73 559.726 1794.18 561.621C1794.63 563.516 1796.53 564.69 1798.42 564.242C1800.32 563.795 1801.49 561.896 1801.04 560Z" fill="#E3E6EB"/>
<path d="M1797.62 534.879C1795.67 534.869 1794.09 536.439 1794.08 538.387C1794.07 540.334 1795.64 541.921 1797.58 541.931C1799.53 541.94 1801.12 540.37 1801.13 538.423C1801.14 536.475 1799.57 534.889 1797.62 534.879Z" fill="#E3E6EB"/>
<path d="M1811.31 547.14C1809.93 545.763 1807.7 545.763 1806.32 547.14C1804.94 548.517 1804.94 550.75 1806.32 552.127C1807.7 553.504 1809.93 553.504 1811.31 552.127C1812.68 550.75 1812.68 548.517 1811.31 547.14Z" fill="#E3E6EB"/>
<path d="M1801.56 516C1801.56 513.791 1799.99 512 1798.06 512C1796.13 512 1794.56 513.791 1794.56 516C1794.56 518.209 1796.13 520 1798.06 520C1799.99 520 1801.56 518.209 1801.56 516Z" fill="#E3E6EB"/>
<path d="M1811.31 524.736C1809.93 523.359 1807.7 523.359 1806.32 524.736C1804.95 526.113 1804.95 528.346 1806.32 529.723C1807.7 531.1 1809.93 531.1 1811.31 529.723C1812.69 528.346 1812.69 526.113 1811.31 524.736Z" fill="#E3E6EB"/>
<path d="M1800.12 491.106C1798.74 489.729 1796.51 489.729 1795.13 491.106C1793.75 492.483 1793.75 494.716 1795.13 496.092C1796.51 497.469 1798.74 497.469 1800.12 496.092C1801.49 494.716 1801.49 492.483 1800.12 491.106Z" fill="#E3E6EB"/>
<path d="M1812.25 504.036C1811.83 502.135 1809.94 500.936 1808.04 501.359C1806.14 501.781 1804.94 503.665 1805.37 505.566C1805.79 507.467 1807.67 508.665 1809.57 508.243C1811.47 507.82 1812.67 505.937 1812.25 504.036Z" fill="#E3E6EB"/>
<path d="M1711.43 470.436C1711.02 468.533 1709.14 467.321 1707.24 467.731C1705.34 468.141 1704.12 470.016 1704.53 471.92C1704.94 473.824 1706.82 475.035 1708.72 474.625C1710.63 474.215 1711.84 472.34 1711.43 470.436Z" fill="#E3E6EB"/>
<path d="M1722.6 481.58C1722.15 479.686 1720.25 478.514 1718.35 478.964C1716.46 479.413 1715.29 481.314 1715.74 483.209C1716.19 485.103 1718.09 486.275 1719.98 485.825C1721.88 485.376 1723.05 483.475 1722.6 481.58Z" fill="#E3E6EB"/>
<path d="M1722.6 459.178C1722.15 457.283 1720.25 456.112 1718.36 456.561C1716.46 457.011 1715.29 458.912 1715.74 460.806C1716.19 462.701 1718.09 463.873 1719.98 463.423C1721.88 462.973 1723.05 461.073 1722.6 459.178Z" fill="#E3E6EB"/>
<path d="M1732.62 468.466C1731.12 467.222 1728.9 467.429 1727.65 468.927C1726.41 470.425 1726.62 472.648 1728.12 473.892C1729.61 475.136 1731.84 474.93 1733.08 473.431C1734.32 471.933 1734.12 469.71 1732.62 468.466Z" fill="#E3E6EB"/>
<path d="M1742.92 479.148C1741.11 478.408 1739.05 479.268 1738.31 481.069C1737.57 482.871 1738.43 484.931 1740.24 485.671C1742.04 486.411 1744.1 485.55 1744.84 483.749C1745.58 481.948 1744.72 479.888 1742.92 479.148Z" fill="#E3E6EB"/>
<path d="M1742.92 456.741C1741.12 456.001 1739.06 456.861 1738.32 458.663C1737.58 460.464 1738.44 462.524 1740.24 463.264C1742.04 464.004 1744.1 463.144 1744.84 461.342C1745.58 459.541 1744.72 457.481 1742.92 456.741Z" fill="#E3E6EB"/>
<path d="M1755.02 468.47C1753.53 467.226 1751.3 467.433 1750.06 468.931C1748.81 470.43 1749.02 472.653 1750.52 473.897C1752.02 475.14 1754.24 474.934 1755.48 473.435C1756.73 471.937 1756.52 469.714 1755.02 468.47Z" fill="#E3E6EB"/>
<path d="M1766.49 479.897C1765.11 478.52 1762.88 478.52 1761.51 479.897C1760.13 481.274 1760.13 483.507 1761.51 484.884C1762.88 486.26 1765.11 486.26 1766.49 484.884C1767.87 483.507 1767.87 481.274 1766.49 479.897Z" fill="#E3E6EB"/>
<path d="M1766.5 457.493C1765.12 456.116 1762.89 456.116 1761.51 457.493C1760.13 458.87 1760.13 461.103 1761.51 462.48C1762.89 463.857 1765.12 463.857 1766.5 462.48C1767.87 461.103 1767.87 458.87 1766.5 457.493Z" fill="#E3E6EB"/>
<path d="M1777.43 468.475C1775.93 467.231 1773.71 467.438 1772.46 468.936C1771.22 470.435 1771.43 472.658 1772.92 473.902C1774.42 475.145 1776.65 474.939 1777.89 473.44C1779.13 471.942 1778.93 469.719 1777.43 468.475Z" fill="#E3E6EB"/>
<path d="M1789.84 481.578C1789.39 479.684 1787.49 478.512 1785.59 478.962C1783.7 479.411 1782.53 481.312 1782.98 483.207C1783.43 485.101 1785.33 486.273 1787.22 485.823C1789.12 485.374 1790.29 483.473 1789.84 481.578Z" fill="#E3E6EB"/>
<path d="M1789.84 459.176C1789.39 457.281 1787.49 456.109 1785.59 456.559C1783.7 457.009 1782.53 458.909 1782.98 460.804C1783.43 462.699 1785.33 463.87 1787.22 463.42C1789.12 462.971 1790.29 461.07 1789.84 459.176Z" fill="#E3E6EB"/>
<path d="M1801.07 470.437C1800.66 468.533 1798.78 467.322 1796.88 467.732C1794.97 468.141 1793.76 470.017 1794.17 471.92C1794.58 473.824 1796.46 475.035 1798.36 474.626C1800.26 474.216 1801.48 472.34 1801.07 470.437Z" fill="#E3E6EB"/>
<path d="M1811.3 479.907C1809.92 478.53 1807.69 478.53 1806.31 479.907C1804.94 481.284 1804.94 483.516 1806.31 484.893C1807.69 486.27 1809.92 486.27 1811.3 484.893C1812.68 483.516 1812.68 481.284 1811.3 479.907Z" fill="#E3E6EB"/>
<path d="M1811.3 457.503C1809.93 456.126 1807.7 456.126 1806.32 457.503C1804.94 458.88 1804.94 461.112 1806.32 462.489C1807.7 463.866 1809.93 463.866 1811.3 462.489C1812.68 461.112 1812.68 458.88 1811.3 457.503Z" fill="#E3E6EB"/>
<path d="M1822.51 558.323C1821.13 556.946 1818.9 556.946 1817.52 558.323C1816.14 559.7 1816.14 561.933 1817.52 563.31C1818.9 564.687 1821.13 564.687 1822.51 563.31C1823.88 561.933 1823.88 559.7 1822.51 558.323Z" fill="#E3E6EB"/>
<path d="M1820.06 534.886C1818.12 534.856 1816.51 536.411 1816.49 538.358C1816.46 540.306 1818.01 541.908 1819.96 541.937C1821.91 541.966 1823.51 540.411 1823.54 538.464C1823.57 536.517 1822.01 534.915 1820.06 534.886Z" fill="#E3E6EB"/>
<path d="M1834.63 548.818C1834.19 546.923 1832.29 545.75 1830.39 546.197C1828.5 546.645 1827.32 548.544 1827.77 550.439C1828.22 552.334 1830.12 553.508 1832.01 553.06C1833.91 552.613 1835.08 550.714 1834.63 548.818Z" fill="#E3E6EB"/>
<path d="M1823.56 516C1823.56 513.791 1821.99 512 1820.06 512C1818.13 512 1816.56 513.791 1816.56 516C1816.56 518.209 1818.13 520 1820.06 520C1821.99 520 1823.56 518.209 1823.56 516Z" fill="#E3E6EB"/>
<path d="M1834.65 526.416C1834.2 524.522 1832.3 523.35 1830.4 523.8C1828.51 524.249 1827.34 526.15 1827.78 528.045C1828.23 529.939 1830.13 531.111 1832.03 530.661C1833.92 530.212 1835.1 528.311 1834.65 526.416Z" fill="#E3E6EB"/>
<path d="M1823.46 492.793C1823.01 490.898 1821.11 489.727 1819.21 490.177C1817.32 490.626 1816.15 492.527 1816.6 494.422C1817.05 496.316 1818.95 497.488 1820.84 497.038C1822.74 496.589 1823.91 494.688 1823.46 492.793Z" fill="#E3E6EB"/>
<path d="M1833.56 502.181C1832.11 500.883 1829.88 501.008 1828.58 502.46C1827.29 503.912 1827.41 506.141 1828.86 507.439C1830.32 508.736 1832.54 508.611 1833.84 507.159C1835.14 505.707 1835.01 503.478 1833.56 502.181Z" fill="#E3E6EB"/>
<path d="M1845.91 560.25C1845.59 558.328 1843.78 557.022 1841.86 557.334C1839.94 557.646 1838.63 559.457 1838.94 561.38C1839.26 563.302 1841.07 564.607 1842.99 564.295C1844.91 563.983 1846.22 562.172 1845.91 560.25Z" fill="#E3E6EB"/>
<path d="M1842.43 534.893C1840.49 534.885 1838.9 536.458 1838.89 538.405C1838.89 540.353 1840.46 541.937 1842.41 541.945C1844.35 541.952 1845.94 540.38 1845.95 538.432C1845.95 536.485 1844.38 534.9 1842.43 534.893Z" fill="#E3E6EB"/>
<path d="M1845.56 516C1845.56 513.791 1843.99 512 1842.06 512C1840.13 512 1838.56 513.791 1838.56 516C1838.56 518.209 1840.13 520 1842.06 520C1843.99 520 1845.56 518.209 1845.56 516Z" fill="#E3E6EB"/>
<path d="M1843.77 490.341C1841.97 489.601 1839.91 490.462 1839.17 492.263C1838.43 494.064 1839.29 496.124 1841.09 496.864C1842.89 497.604 1844.95 496.744 1845.69 494.943C1846.43 493.142 1845.57 491.081 1843.77 490.341Z" fill="#E3E6EB"/>
<path d="M1822.26 468.459C1820.76 467.216 1818.53 467.422 1817.29 468.921C1816.05 470.419 1816.25 472.642 1817.75 473.886C1819.25 475.13 1821.47 474.923 1822.72 473.425C1823.96 471.926 1823.75 469.703 1822.26 468.459Z" fill="#E3E6EB"/>
<path d="M1834.64 481.581C1834.19 479.687 1832.29 478.515 1830.4 478.965C1828.5 479.414 1827.33 481.315 1827.78 483.21C1828.23 485.104 1830.13 486.276 1832.03 485.826C1833.92 485.377 1835.09 483.476 1834.64 481.581Z" fill="#E3E6EB"/>
<path d="M1834.64 459.178C1834.19 457.284 1832.29 456.112 1830.4 456.562C1828.5 457.012 1827.33 458.912 1827.78 460.807C1828.23 462.702 1830.13 463.873 1832.03 463.423C1833.92 462.974 1835.09 461.073 1834.64 459.178Z" fill="#E3E6EB"/>
<path d="M1845.91 470.674C1845.64 468.747 1843.85 467.408 1841.92 467.684C1840 467.961 1838.66 469.747 1838.93 471.675C1839.21 473.603 1841 474.941 1842.92 474.665C1844.85 474.389 1846.19 472.602 1845.91 470.674Z" fill="#E3E6EB"/>
<path d="M1711.41 448.005C1710.96 446.11 1709.06 444.936 1707.17 445.384C1705.27 445.831 1704.1 447.73 1704.55 449.625C1704.99 451.521 1706.89 452.694 1708.79 452.247C1710.68 451.799 1711.86 449.9 1711.41 448.005Z" fill="#E3E6EB"/>
<path d="M1707.98 422.882C1706.04 422.872 1704.45 424.443 1704.44 426.39C1704.43 428.337 1706 429.924 1707.95 429.934C1709.9 429.944 1711.48 428.373 1711.49 426.426C1711.5 424.479 1709.93 422.892 1707.98 422.882Z" fill="#E3E6EB"/>
<path d="M1722.6 436.823C1722.15 434.928 1720.25 433.754 1718.36 434.202C1716.46 434.649 1715.29 436.548 1715.74 438.443C1716.18 440.338 1718.08 441.512 1719.98 441.064C1721.87 440.617 1723.05 438.718 1722.6 436.823Z" fill="#E3E6EB"/>
<path d="M1711.56 404C1711.56 401.791 1709.99 400 1708.06 400C1706.13 400 1704.56 401.791 1704.56 404C1704.56 406.209 1706.13 408 1708.06 408C1709.99 408 1711.56 406.209 1711.56 404Z" fill="#E3E6EB"/>
<path d="M1722.6 414.416C1722.15 412.521 1720.25 411.35 1718.36 411.799C1716.46 412.249 1715.29 414.149 1715.74 416.044C1716.19 417.939 1718.09 419.11 1719.99 418.661C1721.88 418.211 1723.05 416.311 1722.6 414.416Z" fill="#E3E6EB"/>
<path d="M1710.48 379.108C1709.1 377.731 1706.87 377.731 1705.49 379.108C1704.12 380.485 1704.12 382.717 1705.49 384.094C1706.87 385.471 1709.1 385.471 1710.48 384.094C1711.86 382.717 1711.86 380.485 1710.48 379.108Z" fill="#E3E6EB"/>
<path d="M1721.52 390.174C1720.06 388.877 1717.84 389.002 1716.54 390.454C1715.24 391.906 1715.37 394.135 1716.82 395.432C1718.27 396.73 1720.5 396.605 1721.8 395.153C1723.09 393.701 1722.97 391.472 1721.52 390.174Z" fill="#E3E6EB"/>
<path d="M1732.87 446.324C1731.49 444.947 1729.26 444.947 1727.88 446.324C1726.51 447.701 1726.51 449.934 1727.88 451.311C1729.26 452.688 1731.49 452.688 1732.87 451.311C1734.25 449.934 1734.25 447.701 1732.87 446.324Z" fill="#E3E6EB"/>
<path d="M1730.43 422.889C1728.48 422.86 1726.88 424.415 1726.85 426.362C1726.82 428.309 1728.38 429.912 1730.32 429.941C1732.27 429.97 1733.87 428.415 1733.9 426.468C1733.93 424.521 1732.37 422.919 1730.43 422.889Z" fill="#E3E6EB"/>
<path d="M1742.94 434.381C1741.14 433.636 1739.07 434.49 1738.33 436.289C1737.58 438.089 1738.44 440.151 1740.24 440.896C1742.04 441.642 1744.1 440.787 1744.84 438.988C1745.59 437.189 1744.73 435.126 1742.94 434.381Z" fill="#E3E6EB"/>
<path d="M1733.56 404C1733.56 401.791 1731.99 400 1730.06 400C1728.13 400 1726.56 401.791 1726.56 404C1726.56 406.209 1728.13 408 1730.06 408C1731.99 408 1733.56 406.209 1733.56 404Z" fill="#E3E6EB"/>
<path d="M1742.93 411.971C1741.13 411.231 1739.07 412.092 1738.33 413.893C1737.59 415.694 1738.45 417.754 1740.25 418.494C1742.05 419.234 1744.11 418.374 1744.85 416.573C1745.59 414.771 1744.73 412.711 1742.93 411.971Z" fill="#E3E6EB"/>
<path d="M1733.82 380.794C1733.37 378.899 1731.47 377.727 1729.57 378.177C1727.68 378.627 1726.51 380.527 1726.96 382.422C1727.41 384.317 1729.31 385.488 1731.2 385.039C1733.1 384.589 1734.27 382.688 1733.82 380.794Z" fill="#E3E6EB"/>
<path d="M1745.06 392.274C1744.77 390.348 1742.97 389.02 1741.05 389.309C1739.12 389.597 1737.79 391.392 1738.08 393.318C1738.37 395.244 1740.16 396.572 1742.09 396.283C1744.02 395.995 1745.34 394.2 1745.06 392.274Z" fill="#E3E6EB"/>
<path d="M1755.27 446.33C1753.9 444.953 1751.66 444.953 1750.29 446.33C1748.91 447.707 1748.91 449.939 1750.29 451.316C1751.66 452.693 1753.9 452.693 1755.27 451.316C1756.65 449.939 1756.65 447.707 1755.27 446.33Z" fill="#E3E6EB"/>
<path d="M1752.84 422.896C1750.89 422.867 1749.29 424.422 1749.26 426.369C1749.23 428.316 1750.78 429.918 1752.73 429.947C1754.68 429.977 1756.28 428.422 1756.31 426.475C1756.34 424.527 1754.78 422.925 1752.84 422.896Z" fill="#E3E6EB"/>
<path d="M1766.5 435.13C1765.12 433.753 1762.89 433.753 1761.51 435.13C1760.13 436.507 1760.13 438.739 1761.51 440.116C1762.89 441.493 1765.12 441.493 1766.5 440.116C1767.88 438.739 1767.88 436.507 1766.5 435.13Z" fill="#E3E6EB"/>
<path d="M1756.56 404C1756.56 401.791 1754.99 400 1753.06 400C1751.13 400 1749.56 401.791 1749.56 404C1749.56 406.209 1751.13 408 1753.06 408C1754.99 408 1756.56 406.209 1756.56 404Z" fill="#E3E6EB"/>
<path d="M1766.5 412.726C1765.13 411.349 1762.89 411.349 1761.52 412.726C1760.14 414.103 1760.14 416.336 1761.52 417.713C1762.89 419.09 1765.13 419.09 1766.5 417.713C1767.88 416.336 1767.88 414.103 1766.5 412.726Z" fill="#E3E6EB"/>
<path d="M1756.22 380.796C1755.77 378.901 1753.87 377.729 1751.98 378.179C1750.08 378.629 1748.91 380.529 1749.36 382.424C1749.81 384.319 1751.71 385.49 1753.6 385.041C1755.5 384.591 1756.67 382.69 1756.22 380.796Z" fill="#E3E6EB"/>
<path d="M1767.45 392.032C1767.02 390.131 1765.14 388.932 1763.24 389.354C1761.34 389.777 1760.14 391.66 1760.56 393.561C1760.98 395.462 1762.87 396.661 1764.77 396.238C1766.67 395.816 1767.87 393.933 1767.45 392.032Z" fill="#E3E6EB"/>
<path d="M1777.68 446.335C1776.3 444.958 1774.07 444.958 1772.69 446.335C1771.31 447.712 1771.31 449.944 1772.69 451.321C1774.07 452.698 1776.3 452.698 1777.68 451.321C1779.05 449.944 1779.05 447.712 1777.68 446.335Z" fill="#E3E6EB"/>
<path d="M1775.25 422.903C1773.3 422.873 1771.7 424.428 1771.67 426.375C1771.64 428.323 1773.19 429.925 1775.14 429.954C1777.09 429.983 1778.69 428.428 1778.72 426.481C1778.75 424.534 1777.19 422.932 1775.25 422.903Z" fill="#E3E6EB"/>
<path d="M1789.83 436.817C1789.39 434.922 1787.49 433.748 1785.59 434.196C1783.7 434.643 1782.52 436.542 1782.97 438.437C1783.42 440.333 1785.32 441.506 1787.21 441.059C1789.11 440.611 1790.28 438.712 1789.83 436.817Z" fill="#E3E6EB"/>
<path d="M1778.56 404C1778.56 401.791 1776.99 400 1775.06 400C1773.13 400 1771.56 401.791 1771.56 404C1771.56 406.209 1773.13 408 1775.06 408C1776.99 408 1778.56 406.209 1778.56 404Z" fill="#E3E6EB"/>
<path d="M1789.84 414.413C1789.39 412.518 1787.49 411.347 1785.6 411.796C1783.7 412.246 1782.53 414.146 1782.98 416.041C1783.43 417.936 1785.33 419.107 1787.22 418.658C1789.12 418.208 1790.29 416.308 1789.84 414.413Z" fill="#E3E6EB"/>
<path d="M1778.62 380.797C1778.17 378.902 1776.27 377.731 1774.38 378.181C1772.48 378.63 1771.31 380.531 1771.76 382.425C1772.21 384.32 1774.11 385.492 1776.01 385.042C1777.9 384.592 1779.07 382.692 1778.62 380.797Z" fill="#E3E6EB"/>
<path d="M1788.75 390.169C1787.3 388.872 1785.07 388.997 1783.77 390.449C1782.48 391.901 1782.6 394.13 1784.05 395.427C1785.5 396.725 1787.73 396.6 1789.03 395.148C1790.33 393.696 1790.2 391.467 1788.75 390.169Z" fill="#E3E6EB"/>
<path d="M1801.04 448C1800.6 446.105 1798.7 444.932 1796.8 445.379C1794.91 445.827 1793.73 447.726 1794.18 449.621C1794.63 451.516 1796.53 452.69 1798.42 452.242C1800.32 451.795 1801.49 449.896 1801.04 448Z" fill="#E3E6EB"/>
<path d="M1797.62 422.879C1795.67 422.869 1794.09 424.439 1794.08 426.387C1794.07 428.334 1795.64 429.921 1797.58 429.931C1799.53 429.94 1801.12 428.37 1801.13 426.423C1801.14 424.475 1799.57 422.889 1797.62 422.879Z" fill="#E3E6EB"/>
<path d="M1811.31 435.14C1809.93 433.763 1807.7 433.763 1806.32 435.14C1804.94 436.517 1804.94 438.75 1806.32 440.127C1807.7 441.504 1809.93 441.504 1811.31 440.127C1812.68 438.75 1812.68 436.517 1811.31 435.14Z" fill="#E3E6EB"/>
<path d="M1801.56 404C1801.56 401.791 1799.99 400 1798.06 400C1796.13 400 1794.56 401.791 1794.56 404C1794.56 406.209 1796.13 408 1798.06 408C1799.99 408 1801.56 406.209 1801.56 404Z" fill="#E3E6EB"/>
<path d="M1811.31 412.736C1809.93 411.359 1807.7 411.359 1806.32 412.736C1804.95 414.113 1804.95 416.346 1806.32 417.723C1807.7 419.1 1809.93 419.1 1811.31 417.723C1812.69 416.346 1812.69 414.113 1811.31 412.736Z" fill="#E3E6EB"/>
<path d="M1800.12 379.106C1798.74 377.729 1796.51 377.729 1795.13 379.106C1793.75 380.483 1793.75 382.716 1795.13 384.092C1796.51 385.469 1798.74 385.469 1800.12 384.092C1801.49 382.716 1801.49 380.483 1800.12 379.106Z" fill="#E3E6EB"/>
<path d="M1812.25 392.036C1811.83 390.135 1809.94 388.936 1808.04 389.359C1806.14 389.781 1804.94 391.665 1805.37 393.566C1805.79 395.467 1807.67 396.665 1809.57 396.243C1811.47 395.82 1812.67 393.937 1812.25 392.036Z" fill="#E3E6EB"/>
<path d="M1711.43 358.436C1711.02 356.533 1709.14 355.321 1707.24 355.731C1705.34 356.141 1704.12 358.016 1704.53 359.92C1704.94 361.824 1706.82 363.035 1708.72 362.625C1710.63 362.215 1711.84 360.34 1711.43 358.436Z" fill="#E3E6EB"/>
<path d="M1722.6 369.58C1722.15 367.686 1720.25 366.514 1718.35 366.964C1716.46 367.413 1715.29 369.314 1715.74 371.209C1716.19 373.103 1718.09 374.275 1719.98 373.825C1721.88 373.376 1723.05 371.475 1722.6 369.58Z" fill="#E3E6EB"/>
<path d="M1722.6 347.178C1722.15 345.283 1720.25 344.112 1718.36 344.561C1716.46 345.011 1715.29 346.912 1715.74 348.806C1716.19 350.701 1718.09 351.873 1719.98 351.423C1721.88 350.973 1723.05 349.073 1722.6 347.178Z" fill="#E3E6EB"/>
<path d="M1732.62 356.466C1731.12 355.222 1728.9 355.429 1727.65 356.927C1726.41 358.425 1726.62 360.648 1728.12 361.892C1729.61 363.136 1731.84 362.93 1733.08 361.431C1734.32 359.933 1734.12 357.71 1732.62 356.466Z" fill="#E3E6EB"/>
<path d="M1742.92 367.148C1741.11 366.408 1739.05 367.268 1738.31 369.069C1737.57 370.871 1738.43 372.931 1740.24 373.671C1742.04 374.411 1744.1 373.55 1744.84 371.749C1745.58 369.948 1744.72 367.888 1742.92 367.148Z" fill="#E3E6EB"/>
<path d="M1742.92 344.741C1741.12 344.001 1739.06 344.861 1738.32 346.663C1737.58 348.464 1738.44 350.524 1740.24 351.264C1742.04 352.004 1744.1 351.144 1744.84 349.342C1745.58 347.541 1744.72 345.481 1742.92 344.741Z" fill="#E3E6EB"/>
<path d="M1755.02 356.47C1753.53 355.226 1751.3 355.433 1750.06 356.931C1748.81 358.43 1749.02 360.653 1750.52 361.897C1752.02 363.14 1754.24 362.934 1755.48 361.435C1756.73 359.937 1756.52 357.714 1755.02 356.47Z" fill="#E3E6EB"/>
<path d="M1766.49 367.897C1765.11 366.52 1762.88 366.52 1761.51 367.897C1760.13 369.274 1760.13 371.507 1761.51 372.884C1762.88 374.26 1765.11 374.26 1766.49 372.884C1767.87 371.507 1767.87 369.274 1766.49 367.897Z" fill="#E3E6EB"/>
<path d="M1766.5 345.493C1765.12 344.116 1762.89 344.116 1761.51 345.493C1760.13 346.87 1760.13 349.103 1761.51 350.48C1762.89 351.857 1765.12 351.857 1766.5 350.48C1767.87 349.103 1767.87 346.87 1766.5 345.493Z" fill="#E3E6EB"/>
<path d="M1777.43 356.475C1775.93 355.231 1773.71 355.438 1772.46 356.936C1771.22 358.435 1771.43 360.658 1772.92 361.902C1774.42 363.145 1776.65 362.939 1777.89 361.44C1779.13 359.942 1778.93 357.719 1777.43 356.475Z" fill="#E3E6EB"/>
<path d="M1789.84 369.578C1789.39 367.684 1787.49 366.512 1785.59 366.962C1783.7 367.411 1782.53 369.312 1782.98 371.207C1783.43 373.101 1785.33 374.273 1787.22 373.823C1789.12 373.374 1790.29 371.473 1789.84 369.578Z" fill="#E3E6EB"/>
<path d="M1789.84 347.176C1789.39 345.281 1787.49 344.109 1785.59 344.559C1783.7 345.009 1782.53 346.909 1782.98 348.804C1783.43 350.699 1785.33 351.87 1787.22 351.42C1789.12 350.971 1790.29 349.07 1789.84 347.176Z" fill="#E3E6EB"/>
<path d="M1801.07 358.437C1800.66 356.533 1798.78 355.322 1796.88 355.732C1794.97 356.141 1793.76 358.017 1794.17 359.92C1794.58 361.824 1796.46 363.035 1798.36 362.626C1800.26 362.216 1801.48 360.34 1801.07 358.437Z" fill="#E3E6EB"/>
<path d="M1811.3 367.907C1809.92 366.53 1807.69 366.53 1806.31 367.907C1804.94 369.284 1804.94 371.516 1806.31 372.893C1807.69 374.27 1809.92 374.27 1811.3 372.893C1812.68 371.516 1812.68 369.284 1811.3 367.907Z" fill="#E3E6EB"/>
<path d="M1811.3 345.503C1809.93 344.126 1807.7 344.126 1806.32 345.503C1804.94 346.88 1804.94 349.112 1806.32 350.489C1807.7 351.866 1809.93 351.866 1811.3 350.489C1812.68 349.112 1812.68 346.88 1811.3 345.503Z" fill="#E3E6EB"/>
<path d="M1822.51 446.323C1821.13 444.946 1818.9 444.946 1817.52 446.323C1816.14 447.7 1816.14 449.933 1817.52 451.31C1818.9 452.687 1821.13 452.687 1822.51 451.31C1823.88 449.933 1823.88 447.7 1822.51 446.323Z" fill="#E3E6EB"/>
<path d="M1820.06 422.886C1818.12 422.856 1816.51 424.411 1816.49 426.358C1816.46 428.306 1818.01 429.908 1819.96 429.937C1821.91 429.966 1823.51 428.411 1823.54 426.464C1823.57 424.517 1822.01 422.915 1820.06 422.886Z" fill="#E3E6EB"/>
<path d="M1834.63 436.818C1834.19 434.923 1832.29 433.75 1830.39 434.197C1828.5 434.645 1827.32 436.544 1827.77 438.439C1828.22 440.334 1830.12 441.508 1832.01 441.06C1833.91 440.613 1835.08 438.714 1834.63 436.818Z" fill="#E3E6EB"/>
<path d="M1823.56 404C1823.56 401.791 1821.99 400 1820.06 400C1818.13 400 1816.56 401.791 1816.56 404C1816.56 406.209 1818.13 408 1820.06 408C1821.99 408 1823.56 406.209 1823.56 404Z" fill="#E3E6EB"/>
<path d="M1834.65 414.416C1834.2 412.522 1832.3 411.35 1830.4 411.8C1828.51 412.249 1827.34 414.15 1827.78 416.045C1828.23 417.939 1830.13 419.111 1832.03 418.661C1833.92 418.212 1835.1 416.311 1834.65 414.416Z" fill="#E3E6EB"/>
<path d="M1823.46 380.793C1823.01 378.898 1821.11 377.727 1819.21 378.177C1817.32 378.626 1816.15 380.527 1816.6 382.422C1817.05 384.316 1818.95 385.488 1820.84 385.038C1822.74 384.589 1823.91 382.688 1823.46 380.793Z" fill="#E3E6EB"/>
<path d="M1833.56 390.181C1832.11 388.883 1829.88 389.008 1828.58 390.46C1827.29 391.912 1827.41 394.141 1828.86 395.439C1830.32 396.736 1832.54 396.611 1833.84 395.159C1835.14 393.707 1835.01 391.478 1833.56 390.181Z" fill="#E3E6EB"/>
<path d="M1845.91 448.25C1845.59 446.328 1843.78 445.022 1841.86 445.334C1839.94 445.646 1838.63 447.457 1838.94 449.38C1839.26 451.302 1841.07 452.607 1842.99 452.295C1844.91 451.983 1846.22 450.172 1845.91 448.25Z" fill="#E3E6EB"/>
<path d="M1842.43 422.893C1840.49 422.885 1838.9 424.458 1838.89 426.405C1838.89 428.353 1840.46 429.937 1842.41 429.945C1844.35 429.952 1845.94 428.38 1845.95 426.432C1845.95 424.485 1844.38 422.9 1842.43 422.893Z" fill="#E3E6EB"/>
<path d="M1845.56 404C1845.56 401.791 1843.99 400 1842.06 400C1840.13 400 1838.56 401.791 1838.56 404C1838.56 406.209 1840.13 408 1842.06 408C1843.99 408 1845.56 406.209 1845.56 404Z" fill="#E3E6EB"/>
<path d="M1843.77 378.341C1841.97 377.601 1839.91 378.462 1839.17 380.263C1838.43 382.064 1839.29 384.124 1841.09 384.864C1842.89 385.604 1844.95 384.744 1845.69 382.943C1846.43 381.142 1845.57 379.081 1843.77 378.341Z" fill="#E3E6EB"/>
<path d="M1822.26 356.459C1820.76 355.216 1818.53 355.422 1817.29 356.921C1816.05 358.419 1816.25 360.642 1817.75 361.886C1819.25 363.13 1821.47 362.923 1822.72 361.425C1823.96 359.926 1823.75 357.703 1822.26 356.459Z" fill="#E3E6EB"/>
<path d="M1834.64 369.581C1834.19 367.687 1832.29 366.515 1830.4 366.965C1828.5 367.414 1827.33 369.315 1827.78 371.21C1828.23 373.104 1830.13 374.276 1832.03 373.826C1833.92 373.377 1835.09 371.476 1834.64 369.581Z" fill="#E3E6EB"/>
<path d="M1834.64 347.178C1834.19 345.284 1832.29 344.112 1830.4 344.562C1828.5 345.012 1827.33 346.912 1827.78 348.807C1828.23 350.702 1830.13 351.873 1832.03 351.423C1833.92 350.974 1835.09 349.073 1834.64 347.178Z" fill="#E3E6EB"/>
<path d="M1845.91 358.674C1845.64 356.747 1843.85 355.408 1841.92 355.684C1840 355.961 1838.66 357.747 1838.93 359.675C1839.21 361.603 1841 362.941 1842.92 362.665C1844.85 362.389 1846.19 360.602 1845.91 358.674Z" fill="#E3E6EB"/>
<path fill-rule="evenodd" clip-rule="evenodd" d="M1808.19 269.618C1855.24 173.179 1971.56 133.141 2068 180.19C2164.44 227.239 2204.47 343.559 2157.42 439.997C2110.38 536.436 1994.06 576.474 1897.62 529.425C1801.18 482.376 1761.14 366.056 1808.19 269.618ZM1863.69 296.693C1895.78 230.906 1975.13 203.593 2040.92 235.688C2106.71 267.784 2134.02 347.134 2101.93 412.921C2069.83 478.709 1990.48 506.022 1924.69 473.926C1858.91 441.831 1831.59 362.481 1863.69 296.693Z" fill="url(#paint0_linear)"/>
</g>
<defs>
<linearGradient id="paint0_linear" x1="1723" y1="444.235" x2="2029.61" y2="83.969" gradientUnits="userSpaceOnUse">
<stop stop-color="#182DF4"/>
<stop offset="0.00520833" stop-color="#1A2DF3"/>
<stop offset="1" stop-color="#FF254C"/>
</linearGradient>
<clipPath id="clip0">
<rect width="1920" height="710" fill="white"/>
</clipPath>
</defs>
</svg>
