<svg width="1920" height="1100" viewBox="0 0 1920 1100" fill="none" xmlns="http://www.w3.org/2000/svg">
<g clip-path="url(#clip0)">
<path fill-rule="evenodd" clip-rule="evenodd" d="M0 966C-45.8396 966 -83 928.84 -83 883C-83 837.16 -45.8396 800 0 800C45.8396 800 83 837.16 83 883C83 928.84 45.8396 966 0 966ZM-5.34058e-05 949.338C-36.6377 949.338 -66.3383 919.638 -66.3383 883C-66.3383 846.362 -36.6377 816.662 -5.34058e-05 816.662C36.6376 816.662 66.3382 846.362 66.3382 883C66.3382 919.638 36.6376 949.338 -5.34058e-05 949.338Z" fill="#E3E6EB"/>
<path fill-rule="evenodd" clip-rule="evenodd" d="M79.4545 172L-135 313.597L-0.145705 517.84L214.309 376.243L79.4545 172ZM66.682 227.569L-78.8805 323.679L12.627 462.271L158.189 366.161L66.682 227.569Z" fill="url(#paint0_linear)"/>
<path d="M896.41 656.005C895.963 654.109 894.064 652.936 892.169 653.383C890.273 653.831 889.1 655.73 889.547 657.625C889.995 659.52 891.894 660.694 893.789 660.246C895.684 659.799 896.858 657.9 896.41 656.005Z" fill="white"/>
<path d="M892.984 630.882C891.037 630.872 889.45 632.442 889.44 634.39C889.43 636.337 891.001 637.924 892.948 637.934C894.895 637.944 896.482 636.373 896.492 634.426C896.502 632.478 894.931 630.892 892.984 630.882Z" fill="white"/>
<path d="M907.6 644.823C907.152 642.927 905.253 641.754 903.358 642.201C901.463 642.649 900.289 644.548 900.737 646.443C901.184 648.338 903.083 649.512 904.979 649.064C906.874 648.617 908.047 646.718 907.6 644.823Z" fill="white"/>
<path d="M896.562 612C896.562 609.791 894.995 608 893.062 608C891.129 608 889.562 609.791 889.562 612C889.562 614.209 891.129 616 893.062 616C894.995 616 896.562 614.209 896.562 612Z" fill="white"/>
<path d="M907.603 622.416C907.154 620.521 905.253 619.349 903.358 619.799C901.464 620.249 900.292 622.149 900.742 624.044C901.191 625.939 903.092 627.11 904.987 626.66C906.881 626.211 908.053 624.31 907.603 622.416Z" fill="white"/>
<path d="M895.48 587.108C894.103 585.731 891.87 585.731 890.493 587.108C889.116 588.485 889.116 590.717 890.493 592.094C891.87 593.471 894.103 593.471 895.48 592.094C896.856 590.717 896.856 588.485 895.48 587.108Z" fill="white"/>
<path d="M906.516 598.174C905.065 596.876 902.836 597.001 901.538 598.453C900.24 599.905 900.365 602.134 901.817 603.432C903.269 604.73 905.498 604.605 906.796 603.153C908.093 601.701 907.968 599.472 906.516 598.174Z" fill="white"/>
<path d="M917.868 654.324C916.491 652.947 914.259 652.947 912.882 654.324C911.505 655.701 911.505 657.934 912.882 659.311C914.259 660.687 916.491 660.687 917.868 659.311C919.245 657.934 919.245 655.701 917.868 654.324Z" fill="white"/>
<path d="M915.428 630.889C913.481 630.86 911.879 632.415 911.849 634.362C911.82 636.309 913.375 637.911 915.322 637.94C917.269 637.97 918.872 636.415 918.901 634.468C918.93 632.52 917.375 630.918 915.428 630.889Z" fill="white"/>
<path d="M927.936 642.381C926.136 641.636 924.074 642.49 923.328 644.289C922.583 646.088 923.438 648.151 925.237 648.896C927.036 649.641 929.099 648.787 929.844 646.988C930.589 645.189 929.735 643.126 927.936 642.381Z" fill="white"/>
<path d="M918.562 612C918.562 609.791 916.995 608 915.062 608C913.129 608 911.562 609.791 911.562 612C911.562 614.209 913.129 616 915.062 616C916.995 616 918.562 614.209 918.562 612Z" fill="white"/>
<path d="M927.932 619.971C926.13 619.231 924.07 620.091 923.33 621.893C922.59 623.694 923.451 625.754 925.252 626.494C927.053 627.234 929.113 626.374 929.853 624.572C930.593 622.771 929.733 620.711 927.932 619.971Z" fill="white"/>
<path d="M918.818 588.793C918.368 586.899 916.468 585.727 914.573 586.177C912.678 586.627 911.507 588.527 911.957 590.422C912.406 592.317 914.307 593.488 916.202 593.038C918.096 592.589 919.268 590.688 918.818 588.793Z" fill="white"/>
<path d="M930.056 600.274C929.767 598.348 927.972 597.02 926.046 597.309C924.12 597.597 922.793 599.392 923.081 601.318C923.37 603.244 925.165 604.571 927.091 604.283C929.017 603.995 930.344 602.2 930.056 600.274Z" fill="white"/>
<path d="M940.272 654.329C938.895 652.952 936.663 652.952 935.286 654.329C933.909 655.706 933.909 657.939 935.286 659.316C936.663 660.693 938.895 660.693 940.272 659.316C941.649 657.939 941.649 655.706 940.272 654.329Z" fill="white"/>
<path d="M937.837 630.896C935.889 630.867 934.287 632.422 934.258 634.369C934.229 636.316 935.784 637.918 937.731 637.947C939.678 637.976 941.28 636.422 941.309 634.474C941.338 632.527 939.784 630.925 937.837 630.896Z" fill="white"/>
<path d="M951.498 643.13C950.121 641.753 947.889 641.753 946.512 643.13C945.135 644.507 945.135 646.739 946.512 648.116C947.889 649.493 950.121 649.493 951.498 648.116C952.875 646.739 952.875 644.507 951.498 643.13Z" fill="white"/>
<path d="M941.562 612C941.562 609.791 939.995 608 938.062 608C936.129 608 934.562 609.791 934.562 612C934.562 614.209 936.129 616 938.062 616C939.995 616 941.562 614.209 941.562 612Z" fill="white"/>
<path d="M951.503 620.726C950.126 619.349 947.894 619.349 946.517 620.726C945.14 622.103 945.14 624.335 946.517 625.712C947.894 627.089 950.126 627.089 951.503 625.712C952.88 624.335 952.88 622.103 951.503 620.726Z" fill="white"/>
<path d="M941.221 588.795C940.771 586.901 938.871 585.729 936.976 586.179C935.081 586.628 933.91 588.529 934.359 590.424C934.809 592.318 936.71 593.49 938.604 593.04C940.499 592.591 941.671 590.69 941.221 588.795Z" fill="white"/>
<path d="M952.445 600.031C952.023 598.13 950.14 596.932 948.239 597.354C946.338 597.776 945.139 599.66 945.561 601.561C945.984 603.462 947.867 604.661 949.768 604.238C951.669 603.816 952.868 601.932 952.445 600.031Z" fill="white"/>
<path d="M962.676 654.334C961.299 652.957 959.067 652.957 957.69 654.334C956.313 655.711 956.313 657.944 957.69 659.321C959.067 660.698 961.299 660.698 962.676 659.321C964.053 657.944 964.053 655.711 962.676 654.334Z" fill="white"/>
<path d="M960.245 630.902C958.298 630.873 956.696 632.428 956.667 634.375C956.638 636.322 958.193 637.924 960.14 637.954C962.087 637.983 963.689 636.428 963.718 634.481C963.747 632.534 962.193 630.932 960.245 630.902Z" fill="white"/>
<path d="M974.833 644.817C974.385 642.922 972.486 641.748 970.591 642.195C968.696 642.643 967.523 644.542 967.97 646.437C968.418 648.332 970.317 649.506 972.212 649.058C974.107 648.611 975.28 646.712 974.833 644.817Z" fill="white"/>
<path d="M963.562 612C963.562 609.791 961.995 608 960.062 608C958.129 608 956.562 609.791 956.562 612C956.562 614.209 958.129 616 960.062 616C961.995 616 963.562 614.209 963.562 612Z" fill="white"/>
<path d="M974.841 622.413C974.391 620.518 972.491 619.346 970.596 619.796C968.701 620.246 967.53 622.146 967.979 624.041C968.429 625.936 970.329 627.107 972.224 626.658C974.119 626.208 975.29 624.307 974.841 622.413Z" fill="white"/>
<path d="M963.624 588.797C963.174 586.902 961.273 585.731 959.379 586.18C957.484 586.63 956.312 588.53 956.762 590.425C957.212 592.32 959.112 593.491 961.007 593.042C962.902 592.592 964.073 590.692 963.624 588.797Z" fill="white"/>
<path d="M973.752 598.169C972.3 596.872 970.071 596.997 968.774 598.448C967.476 599.9 967.601 602.129 969.053 603.427C970.505 604.725 972.734 604.6 974.032 603.148C975.329 601.696 975.204 599.467 973.752 598.169Z" fill="white"/>
<path d="M986.044 656C985.597 654.105 983.698 652.932 981.803 653.379C979.907 653.827 978.734 655.726 979.181 657.621C979.629 659.516 981.528 660.689 983.423 660.242C985.318 659.794 986.492 657.895 986.044 656Z" fill="white"/>
<path d="M982.62 630.878C980.672 630.868 979.086 632.439 979.076 634.386C979.066 636.334 980.637 637.92 982.584 637.93C984.531 637.94 986.118 636.37 986.128 634.422C986.138 632.475 984.567 630.888 982.62 630.878Z" fill="white"/>
<path d="M996.306 643.14C994.929 641.763 992.696 641.763 991.32 643.14C989.943 644.517 989.943 646.749 991.32 648.126C992.696 649.503 994.929 649.503 996.306 648.126C997.683 646.749 997.683 644.517 996.306 643.14Z" fill="white"/>
<path d="M986.562 612C986.562 609.79 984.995 608 983.062 608C981.129 608 979.562 609.79 979.562 612C979.562 614.209 981.129 616 983.062 616C984.995 616 986.562 614.209 986.562 612Z" fill="white"/>
<path d="M996.311 620.736C994.934 619.359 992.702 619.359 991.325 620.736C989.948 622.113 989.948 624.346 991.325 625.723C992.702 627.1 994.934 627.1 996.311 625.723C997.688 624.346 997.688 622.113 996.311 620.736Z" fill="white"/>
<path d="M985.117 587.106C983.74 585.729 981.507 585.729 980.13 587.106C978.753 588.483 978.753 590.715 980.13 592.092C981.507 593.469 983.74 593.469 985.117 592.092C986.494 590.715 986.494 588.483 985.117 587.106Z" fill="white"/>
<path d="M997.25 600.036C996.828 598.135 994.945 596.936 993.044 597.358C991.143 597.781 989.944 599.664 990.366 601.565C990.789 603.466 992.672 604.665 994.573 604.243C996.474 603.82 997.673 601.937 997.25 600.036Z" fill="white"/>
<path d="M896.428 566.436C896.019 564.532 894.143 563.321 892.24 563.731C890.336 564.141 889.125 566.016 889.535 567.92C889.944 569.823 891.82 571.035 893.723 570.625C895.627 570.215 896.838 568.34 896.428 566.436Z" fill="white"/>
<path d="M907.599 577.58C907.149 575.685 905.249 574.514 903.354 574.963C901.459 575.413 900.288 577.314 900.738 579.208C901.187 581.103 903.088 582.275 904.983 581.825C906.877 581.375 908.049 579.475 907.599 577.58Z" fill="white"/>
<path d="M907.601 555.178C907.151 553.283 905.251 552.112 903.356 552.561C901.461 553.011 900.29 554.911 900.739 556.806C901.189 558.701 903.089 559.872 904.984 559.423C906.879 558.973 908.05 557.073 907.601 555.178Z" fill="white"/>
<path d="M917.619 564.466C916.121 563.222 913.898 563.428 912.654 564.927C911.41 566.425 911.617 568.648 913.115 569.892C914.614 571.136 916.837 570.929 918.08 569.431C919.324 567.932 919.118 565.709 917.619 564.466Z" fill="white"/>
<path d="M927.916 575.147C926.114 574.407 924.054 575.268 923.314 577.069C922.574 578.87 923.435 580.93 925.236 581.67C927.037 582.41 929.097 581.55 929.837 579.749C930.577 577.947 929.717 575.887 927.916 575.147Z" fill="white"/>
<path d="M927.922 552.741C926.121 552.001 924.06 552.861 923.32 554.662C922.581 556.464 923.441 558.524 925.242 559.264C927.043 560.004 929.104 559.143 929.844 557.342C930.584 555.541 929.723 553.481 927.922 552.741Z" fill="white"/>
<path d="M940.024 564.47C938.525 563.226 936.302 563.433 935.058 564.931C933.815 566.43 934.021 568.653 935.52 569.896C937.018 571.14 939.241 570.934 940.485 569.435C941.729 567.937 941.522 565.714 940.024 564.47Z" fill="white"/>
<path d="M951.492 575.897C950.115 574.52 947.882 574.52 946.505 575.897C945.128 577.274 945.128 579.506 946.505 580.883C947.882 582.26 950.115 582.26 951.492 580.883C952.869 579.506 952.869 577.274 951.492 575.897Z" fill="white"/>
<path d="M951.497 553.493C950.12 552.116 947.887 552.116 946.51 553.493C945.133 554.87 945.133 557.102 946.51 558.479C947.887 559.856 950.12 559.856 951.497 558.479C952.874 557.102 952.874 554.87 951.497 553.493Z" fill="white"/>
<path d="M962.428 564.475C960.93 563.231 958.707 563.438 957.463 564.936C956.219 566.435 956.426 568.658 957.924 569.901C959.422 571.145 961.645 570.939 962.889 569.44C964.133 567.942 963.927 565.719 962.428 564.475Z" fill="white"/>
<path d="M974.837 577.578C974.387 575.683 972.487 574.512 970.592 574.962C968.697 575.411 967.526 577.312 967.975 579.206C968.425 581.101 970.326 582.273 972.22 581.823C974.115 581.373 975.287 579.473 974.837 577.578Z" fill="white"/>
<path d="M974.838 555.175C974.389 553.281 972.488 552.109 970.593 552.559C968.699 553.008 967.527 554.909 967.977 556.804C968.427 558.698 970.327 559.87 972.222 559.42C974.117 558.971 975.288 557.07 974.838 555.175Z" fill="white"/>
<path d="M986.066 566.436C985.656 564.533 983.781 563.322 981.877 563.731C979.973 564.141 978.762 566.017 979.172 567.92C979.581 569.824 981.457 571.035 983.361 570.625C985.264 570.216 986.475 568.34 986.066 566.436Z" fill="white"/>
<path d="M996.3 575.907C994.923 574.53 992.69 574.53 991.313 575.907C989.936 577.284 989.936 579.516 991.313 580.893C992.69 582.27 994.923 582.27 996.3 580.893C997.677 579.516 997.677 577.284 996.3 575.907Z" fill="white"/>
<path d="M996.304 553.503C994.928 552.126 992.695 552.126 991.318 553.503C989.941 554.88 989.941 557.112 991.318 558.489C992.695 559.866 994.928 559.866 996.304 558.489C997.681 557.112 997.681 554.88 996.304 553.503Z" fill="white"/>
<path d="M1007.51 654.323C1006.13 652.946 1003.9 652.946 1002.52 654.323C1001.14 655.7 1001.14 657.933 1002.52 659.31C1003.9 660.686 1006.13 660.686 1007.51 659.31C1008.88 657.933 1008.88 655.7 1007.51 654.323Z" fill="white"/>
<path d="M1005.06 630.885C1003.12 630.856 1001.51 632.411 1001.49 634.358C1001.46 636.305 1003.01 637.907 1004.96 637.936C1006.91 637.966 1008.51 636.411 1008.54 634.464C1008.57 632.517 1007.01 630.914 1005.06 630.885Z" fill="white"/>
<path d="M1019.63 644.818C1019.19 642.923 1017.29 641.749 1015.39 642.197C1013.5 642.644 1012.32 644.544 1012.77 646.439C1013.22 648.334 1015.12 649.507 1017.01 649.06C1018.91 648.612 1020.08 646.713 1019.63 644.818Z" fill="white"/>
<path d="M1008.56 612C1008.56 609.791 1006.99 608 1005.06 608C1003.13 608 1001.56 609.791 1001.56 612C1001.56 614.209 1003.13 616 1005.06 616C1006.99 616 1008.56 614.209 1008.56 612Z" fill="white"/>
<path d="M1019.65 622.416C1019.2 620.521 1017.3 619.35 1015.4 619.799C1013.51 620.249 1012.34 622.15 1012.78 624.044C1013.23 625.939 1015.13 627.111 1017.03 626.661C1018.92 626.211 1020.1 624.311 1019.65 622.416Z" fill="white"/>
<path d="M1008.46 588.793C1008.01 586.898 1006.11 585.727 1004.21 586.176C1002.32 586.626 1001.15 588.527 1001.6 590.421C1002.05 592.316 1003.95 593.488 1005.84 593.038C1007.74 592.588 1008.91 590.688 1008.46 588.793Z" fill="white"/>
<path d="M1018.56 598.18C1017.11 596.883 1014.88 597.008 1013.58 598.46C1012.29 599.912 1012.41 602.141 1013.86 603.438C1015.32 604.736 1017.54 604.611 1018.84 603.159C1020.14 601.707 1020.01 599.478 1018.56 598.18Z" fill="white"/>
<path d="M1030.91 656.25C1030.59 654.327 1028.78 653.022 1026.86 653.334C1024.94 653.646 1023.63 655.457 1023.94 657.379C1024.26 659.302 1026.07 660.607 1027.99 660.295C1029.91 659.983 1031.22 658.172 1030.91 656.25Z" fill="white"/>
<path d="M1027.43 630.893C1025.49 630.885 1023.9 632.458 1023.89 634.405C1023.89 636.352 1025.46 637.937 1027.41 637.945C1029.35 637.952 1030.94 636.379 1030.95 634.432C1030.95 632.485 1029.38 630.9 1027.43 630.893Z" fill="white"/>
<path d="M1030.56 612C1030.56 609.791 1028.99 608 1027.06 608C1025.13 608 1023.56 609.791 1023.56 612C1023.56 614.209 1025.13 616 1027.06 616C1028.99 616 1030.56 614.209 1030.56 612Z" fill="white"/>
<path d="M1028.77 586.341C1026.97 585.601 1024.91 586.462 1024.17 588.263C1023.43 590.064 1024.29 592.124 1026.09 592.864C1027.89 593.604 1029.95 592.744 1030.69 590.943C1031.43 589.141 1030.57 587.081 1028.77 586.341Z" fill="white"/>
<path d="M1007.26 564.459C1005.76 563.215 1003.53 563.422 1002.29 564.92C1001.05 566.419 1001.25 568.642 1002.75 569.886C1004.25 571.129 1006.47 570.923 1007.72 569.424C1008.96 567.926 1008.75 565.703 1007.26 564.459Z" fill="white"/>
<path d="M1019.64 577.581C1019.19 575.686 1017.29 574.515 1015.4 574.964C1013.5 575.414 1012.33 577.315 1012.78 579.209C1013.23 581.104 1015.13 582.276 1017.03 581.826C1018.92 581.376 1020.09 579.476 1019.64 577.581Z" fill="white"/>
<path d="M1019.64 555.178C1019.19 553.283 1017.29 552.112 1015.4 552.562C1013.5 553.011 1012.33 554.912 1012.78 556.807C1013.23 558.701 1015.13 559.873 1017.03 559.423C1018.92 558.974 1020.09 557.073 1019.64 555.178Z" fill="white"/>
<path d="M1030.91 566.674C1030.64 564.746 1028.85 563.408 1026.92 563.684C1025 563.96 1023.66 565.747 1023.93 567.675C1024.21 569.602 1026 570.941 1027.92 570.665C1029.85 570.388 1031.19 568.602 1030.91 566.674Z" fill="white"/>
<path d="M896.41 544.005C895.963 542.109 894.064 540.936 892.169 541.383C890.273 541.831 889.1 543.73 889.547 545.625C889.995 547.52 891.894 548.694 893.789 548.246C895.684 547.799 896.858 545.9 896.41 544.005Z" fill="white"/>
<path d="M892.984 518.882C891.037 518.872 889.45 520.442 889.44 522.39C889.43 524.337 891.001 525.924 892.948 525.934C894.895 525.944 896.482 524.373 896.492 522.426C896.502 520.478 894.931 518.892 892.984 518.882Z" fill="white"/>
<path d="M907.6 532.823C907.152 530.927 905.253 529.754 903.358 530.201C901.463 530.649 900.289 532.548 900.737 534.443C901.184 536.338 903.083 537.512 904.979 537.064C906.874 536.617 908.047 534.718 907.6 532.823Z" fill="white"/>
<path d="M896.562 500C896.562 497.791 894.995 496 893.062 496C891.129 496 889.562 497.791 889.562 500C889.562 502.209 891.129 504 893.062 504C894.995 504 896.562 502.209 896.562 500Z" fill="white"/>
<path d="M907.603 510.416C907.154 508.521 905.253 507.349 903.358 507.799C901.464 508.249 900.292 510.149 900.742 512.044C901.191 513.939 903.092 515.11 904.987 514.66C906.881 514.211 908.053 512.31 907.603 510.416Z" fill="white"/>
<path d="M895.48 475.108C894.103 473.731 891.87 473.731 890.493 475.108C889.116 476.485 889.116 478.717 890.493 480.094C891.87 481.471 894.103 481.471 895.48 480.094C896.856 478.717 896.856 476.485 895.48 475.108Z" fill="white"/>
<path d="M906.516 486.174C905.065 484.876 902.836 485.001 901.538 486.453C900.24 487.905 900.365 490.134 901.817 491.432C903.269 492.73 905.498 492.605 906.796 491.153C908.093 489.701 907.968 487.472 906.516 486.174Z" fill="white"/>
<path d="M917.868 542.324C916.491 540.947 914.259 540.947 912.882 542.324C911.505 543.701 911.505 545.934 912.882 547.311C914.259 548.687 916.491 548.687 917.868 547.311C919.245 545.934 919.245 543.701 917.868 542.324Z" fill="white"/>
<path d="M915.428 518.889C913.481 518.86 911.879 520.415 911.849 522.362C911.82 524.309 913.375 525.911 915.322 525.94C917.269 525.97 918.872 524.415 918.901 522.468C918.93 520.52 917.375 518.918 915.428 518.889Z" fill="white"/>
<path d="M927.936 530.381C926.136 529.636 924.074 530.49 923.328 532.289C922.583 534.088 923.438 536.151 925.237 536.896C927.036 537.641 929.099 536.787 929.844 534.988C930.589 533.189 929.735 531.126 927.936 530.381Z" fill="white"/>
<path d="M918.562 500C918.562 497.791 916.995 496 915.062 496C913.129 496 911.562 497.791 911.562 500C911.562 502.209 913.129 504 915.062 504C916.995 504 918.562 502.209 918.562 500Z" fill="white"/>
<path d="M927.932 507.971C926.13 507.231 924.07 508.091 923.33 509.893C922.59 511.694 923.451 513.754 925.252 514.494C927.053 515.234 929.113 514.374 929.853 512.572C930.593 510.771 929.733 508.711 927.932 507.971Z" fill="white"/>
<path d="M918.818 476.793C918.368 474.899 916.468 473.727 914.573 474.177C912.678 474.627 911.507 476.527 911.957 478.422C912.406 480.317 914.307 481.488 916.202 481.038C918.096 480.589 919.268 478.688 918.818 476.793Z" fill="white"/>
<path d="M930.056 488.274C929.767 486.348 927.972 485.02 926.046 485.309C924.12 485.597 922.793 487.392 923.081 489.318C923.37 491.244 925.165 492.571 927.091 492.283C929.017 491.995 930.344 490.2 930.056 488.274Z" fill="white"/>
<path d="M940.272 542.329C938.895 540.952 936.663 540.952 935.286 542.329C933.909 543.706 933.909 545.939 935.286 547.316C936.663 548.693 938.895 548.693 940.272 547.316C941.649 545.939 941.649 543.706 940.272 542.329Z" fill="white"/>
<path d="M937.837 518.896C935.889 518.867 934.287 520.422 934.258 522.369C934.229 524.316 935.784 525.918 937.731 525.947C939.678 525.976 941.28 524.422 941.309 522.474C941.338 520.527 939.784 518.925 937.837 518.896Z" fill="white"/>
<path d="M951.498 531.13C950.121 529.753 947.889 529.753 946.512 531.13C945.135 532.507 945.135 534.739 946.512 536.116C947.889 537.493 950.121 537.493 951.498 536.116C952.875 534.739 952.875 532.507 951.498 531.13Z" fill="white"/>
<path d="M941.562 500C941.562 497.791 939.995 496 938.062 496C936.129 496 934.562 497.791 934.562 500C934.562 502.209 936.129 504 938.062 504C939.995 504 941.562 502.209 941.562 500Z" fill="white"/>
<path d="M951.503 508.726C950.126 507.349 947.894 507.349 946.517 508.726C945.14 510.103 945.14 512.335 946.517 513.712C947.894 515.089 950.126 515.089 951.503 513.712C952.88 512.335 952.88 510.103 951.503 508.726Z" fill="white"/>
<path d="M941.221 476.795C940.771 474.901 938.871 473.729 936.976 474.179C935.081 474.628 933.91 476.529 934.359 478.424C934.809 480.318 936.71 481.49 938.604 481.04C940.499 480.591 941.671 478.69 941.221 476.795Z" fill="white"/>
<path d="M952.445 488.031C952.023 486.13 950.14 484.932 948.239 485.354C946.338 485.776 945.139 487.66 945.561 489.561C945.984 491.462 947.867 492.661 949.768 492.238C951.669 491.816 952.868 489.932 952.445 488.031Z" fill="white"/>
<path d="M962.676 542.334C961.299 540.957 959.067 540.957 957.69 542.334C956.313 543.711 956.313 545.944 957.69 547.321C959.067 548.698 961.299 548.698 962.676 547.321C964.053 545.944 964.053 543.711 962.676 542.334Z" fill="white"/>
<path d="M960.245 518.902C958.298 518.873 956.696 520.428 956.667 522.375C956.638 524.322 958.193 525.924 960.14 525.954C962.087 525.983 963.689 524.428 963.718 522.481C963.747 520.534 962.193 518.932 960.245 518.902Z" fill="white"/>
<path d="M974.833 532.817C974.385 530.922 972.486 529.748 970.591 530.195C968.696 530.643 967.523 532.542 967.97 534.437C968.418 536.332 970.317 537.506 972.212 537.058C974.107 536.611 975.28 534.712 974.833 532.817Z" fill="white"/>
<path d="M963.562 500C963.562 497.791 961.995 496 960.062 496C958.129 496 956.562 497.791 956.562 500C956.562 502.209 958.129 504 960.062 504C961.995 504 963.562 502.209 963.562 500Z" fill="white"/>
<path d="M974.841 510.413C974.391 508.518 972.491 507.346 970.596 507.796C968.701 508.246 967.53 510.146 967.979 512.041C968.429 513.936 970.329 515.107 972.224 514.658C974.119 514.208 975.29 512.307 974.841 510.413Z" fill="white"/>
<path d="M963.624 476.797C963.174 474.902 961.273 473.731 959.379 474.18C957.484 474.63 956.312 476.53 956.762 478.425C957.212 480.32 959.112 481.491 961.007 481.042C962.902 480.592 964.073 478.692 963.624 476.797Z" fill="white"/>
<path d="M973.752 486.169C972.3 484.872 970.071 484.997 968.774 486.448C967.476 487.9 967.601 490.129 969.053 491.427C970.505 492.725 972.734 492.6 974.032 491.148C975.329 489.696 975.204 487.467 973.752 486.169Z" fill="white"/>
<path d="M986.044 544C985.597 542.105 983.698 540.932 981.803 541.379C979.907 541.827 978.734 543.726 979.181 545.621C979.629 547.516 981.528 548.689 983.423 548.242C985.318 547.794 986.492 545.895 986.044 544Z" fill="white"/>
<path d="M982.62 518.878C980.672 518.868 979.086 520.439 979.076 522.386C979.066 524.334 980.637 525.92 982.584 525.93C984.531 525.94 986.118 524.37 986.128 522.422C986.138 520.475 984.567 518.888 982.62 518.878Z" fill="white"/>
<path d="M996.306 531.14C994.929 529.763 992.696 529.763 991.32 531.14C989.943 532.517 989.943 534.749 991.32 536.126C992.696 537.503 994.929 537.503 996.306 536.126C997.683 534.749 997.683 532.517 996.306 531.14Z" fill="white"/>
<path d="M986.562 500C986.562 497.79 984.995 496 983.062 496C981.129 496 979.562 497.79 979.562 500C979.562 502.209 981.129 504 983.062 504C984.995 504 986.562 502.209 986.562 500Z" fill="white"/>
<path d="M996.311 508.736C994.934 507.359 992.702 507.359 991.325 508.736C989.948 510.113 989.948 512.346 991.325 513.723C992.702 515.1 994.934 515.1 996.311 513.723C997.688 512.346 997.688 510.113 996.311 508.736Z" fill="white"/>
<path d="M985.117 475.106C983.74 473.729 981.507 473.729 980.13 475.106C978.753 476.483 978.753 478.715 980.13 480.092C981.507 481.469 983.74 481.469 985.117 480.092C986.494 478.715 986.494 476.483 985.117 475.106Z" fill="white"/>
<path d="M997.25 488.036C996.828 486.135 994.945 484.936 993.044 485.358C991.143 485.781 989.944 487.664 990.366 489.565C990.789 491.466 992.672 492.665 994.573 492.243C996.474 491.82 997.673 489.937 997.25 488.036Z" fill="white"/>
<path d="M896.428 454.436C896.019 452.532 894.143 451.321 892.24 451.731C890.336 452.141 889.125 454.016 889.535 455.92C889.944 457.823 891.82 459.035 893.723 458.625C895.627 458.215 896.838 456.34 896.428 454.436Z" fill="white"/>
<path d="M907.599 465.58C907.149 463.685 905.249 462.514 903.354 462.963C901.459 463.413 900.288 465.314 900.738 467.208C901.187 469.103 903.088 470.275 904.983 469.825C906.877 469.375 908.049 467.475 907.599 465.58Z" fill="white"/>
<path d="M907.601 443.178C907.151 441.283 905.251 440.112 903.356 440.561C901.461 441.011 900.29 442.911 900.739 444.806C901.189 446.701 903.089 447.872 904.984 447.423C906.879 446.973 908.05 445.073 907.601 443.178Z" fill="white"/>
<path d="M917.619 452.466C916.121 451.222 913.898 451.428 912.654 452.927C911.41 454.425 911.617 456.648 913.115 457.892C914.614 459.136 916.837 458.929 918.08 457.431C919.324 455.932 919.118 453.709 917.619 452.466Z" fill="white"/>
<path d="M927.916 463.147C926.114 462.407 924.054 463.268 923.314 465.069C922.574 466.87 923.435 468.93 925.236 469.67C927.037 470.41 929.097 469.55 929.837 467.749C930.577 465.947 929.717 463.887 927.916 463.147Z" fill="white"/>
<path d="M927.922 440.741C926.121 440.001 924.06 440.861 923.32 442.662C922.581 444.464 923.441 446.524 925.242 447.264C927.043 448.004 929.104 447.143 929.844 445.342C930.584 443.541 929.723 441.481 927.922 440.741Z" fill="white"/>
<path d="M940.024 452.47C938.525 451.226 936.302 451.433 935.058 452.931C933.815 454.43 934.021 456.653 935.52 457.896C937.018 459.14 939.241 458.934 940.485 457.435C941.729 455.937 941.522 453.714 940.024 452.47Z" fill="white"/>
<path d="M951.492 463.897C950.115 462.52 947.882 462.52 946.505 463.897C945.128 465.274 945.128 467.506 946.505 468.883C947.882 470.26 950.115 470.26 951.492 468.883C952.869 467.506 952.869 465.274 951.492 463.897Z" fill="white"/>
<path d="M951.497 441.493C950.12 440.116 947.887 440.116 946.51 441.493C945.133 442.87 945.133 445.102 946.51 446.479C947.887 447.856 950.12 447.856 951.497 446.479C952.874 445.102 952.874 442.87 951.497 441.493Z" fill="white"/>
<path d="M962.428 452.475C960.93 451.231 958.707 451.438 957.463 452.936C956.219 454.435 956.426 456.658 957.924 457.901C959.422 459.145 961.645 458.939 962.889 457.44C964.133 455.942 963.927 453.719 962.428 452.475Z" fill="white"/>
<path d="M974.837 465.578C974.387 463.683 972.487 462.512 970.592 462.962C968.697 463.411 967.526 465.312 967.975 467.206C968.425 469.101 970.326 470.273 972.22 469.823C974.115 469.373 975.287 467.473 974.837 465.578Z" fill="white"/>
<path d="M974.838 443.175C974.389 441.281 972.488 440.109 970.593 440.559C968.699 441.008 967.527 442.909 967.977 444.804C968.427 446.698 970.327 447.87 972.222 447.42C974.117 446.971 975.288 445.07 974.838 443.175Z" fill="white"/>
<path d="M986.066 454.436C985.656 452.533 983.781 451.322 981.877 451.731C979.973 452.141 978.762 454.017 979.172 455.92C979.581 457.824 981.457 459.035 983.361 458.625C985.264 458.216 986.475 456.34 986.066 454.436Z" fill="white"/>
<path d="M996.3 463.907C994.923 462.53 992.69 462.53 991.313 463.907C989.936 465.284 989.936 467.516 991.313 468.893C992.69 470.27 994.923 470.27 996.3 468.893C997.677 467.516 997.677 465.284 996.3 463.907Z" fill="white"/>
<path d="M996.304 441.503C994.928 440.126 992.695 440.126 991.318 441.503C989.941 442.88 989.941 445.112 991.318 446.489C992.695 447.866 994.928 447.866 996.304 446.489C997.681 445.112 997.681 442.88 996.304 441.503Z" fill="white"/>
<path d="M1007.51 542.323C1006.13 540.946 1003.9 540.946 1002.52 542.323C1001.14 543.7 1001.14 545.933 1002.52 547.31C1003.9 548.686 1006.13 548.686 1007.51 547.31C1008.88 545.933 1008.88 543.7 1007.51 542.323Z" fill="white"/>
<path d="M1005.06 518.885C1003.12 518.856 1001.51 520.411 1001.49 522.358C1001.46 524.305 1003.01 525.907 1004.96 525.936C1006.91 525.966 1008.51 524.411 1008.54 522.464C1008.57 520.517 1007.01 518.914 1005.06 518.885Z" fill="white"/>
<path d="M1019.63 532.818C1019.19 530.923 1017.29 529.749 1015.39 530.197C1013.5 530.644 1012.32 532.544 1012.77 534.439C1013.22 536.334 1015.12 537.507 1017.01 537.06C1018.91 536.612 1020.08 534.713 1019.63 532.818Z" fill="white"/>
<path d="M1008.56 500C1008.56 497.791 1006.99 496 1005.06 496C1003.13 496 1001.56 497.791 1001.56 500C1001.56 502.209 1003.13 504 1005.06 504C1006.99 504 1008.56 502.209 1008.56 500Z" fill="white"/>
<path d="M1019.65 510.416C1019.2 508.521 1017.3 507.35 1015.4 507.799C1013.51 508.249 1012.34 510.15 1012.78 512.044C1013.23 513.939 1015.13 515.111 1017.03 514.661C1018.92 514.211 1020.1 512.311 1019.65 510.416Z" fill="white"/>
<path d="M1008.46 476.793C1008.01 474.898 1006.11 473.727 1004.21 474.176C1002.32 474.626 1001.15 476.527 1001.6 478.421C1002.05 480.316 1003.95 481.488 1005.84 481.038C1007.74 480.588 1008.91 478.688 1008.46 476.793Z" fill="white"/>
<path d="M1018.56 486.18C1017.11 484.883 1014.88 485.008 1013.58 486.46C1012.29 487.912 1012.41 490.141 1013.86 491.438C1015.32 492.736 1017.54 492.611 1018.84 491.159C1020.14 489.707 1020.01 487.478 1018.56 486.18Z" fill="white"/>
<path d="M1030.91 544.25C1030.59 542.327 1028.78 541.022 1026.86 541.334C1024.94 541.646 1023.63 543.457 1023.94 545.379C1024.26 547.302 1026.07 548.607 1027.99 548.295C1029.91 547.983 1031.22 546.172 1030.91 544.25Z" fill="white"/>
<path d="M1027.43 518.893C1025.49 518.885 1023.9 520.458 1023.89 522.405C1023.89 524.352 1025.46 525.937 1027.41 525.945C1029.35 525.952 1030.94 524.379 1030.95 522.432C1030.95 520.485 1029.38 518.9 1027.43 518.893Z" fill="white"/>
<path d="M1030.56 500C1030.56 497.791 1028.99 496 1027.06 496C1025.13 496 1023.56 497.791 1023.56 500C1023.56 502.209 1025.13 504 1027.06 504C1028.99 504 1030.56 502.209 1030.56 500Z" fill="white"/>
<path d="M1028.77 474.341C1026.97 473.601 1024.91 474.462 1024.17 476.263C1023.43 478.064 1024.29 480.124 1026.09 480.864C1027.89 481.604 1029.95 480.744 1030.69 478.943C1031.43 477.141 1030.57 475.081 1028.77 474.341Z" fill="white"/>
<path d="M1007.26 452.459C1005.76 451.215 1003.53 451.422 1002.29 452.92C1001.05 454.419 1001.25 456.642 1002.75 457.886C1004.25 459.129 1006.47 458.923 1007.72 457.424C1008.96 455.926 1008.75 453.703 1007.26 452.459Z" fill="white"/>
<path d="M1019.64 465.581C1019.19 463.686 1017.29 462.515 1015.4 462.964C1013.5 463.414 1012.33 465.315 1012.78 467.209C1013.23 469.104 1015.13 470.276 1017.03 469.826C1018.92 469.376 1020.09 467.476 1019.64 465.581Z" fill="white"/>
<path d="M1019.64 443.178C1019.19 441.283 1017.29 440.112 1015.4 440.562C1013.5 441.011 1012.33 442.912 1012.78 444.807C1013.23 446.701 1015.13 447.873 1017.03 447.423C1018.92 446.974 1020.09 445.073 1019.64 443.178Z" fill="white"/>
<path d="M1030.91 454.674C1030.64 452.746 1028.85 451.408 1026.92 451.684C1025 451.96 1023.66 453.747 1023.93 455.675C1024.21 457.602 1026 458.941 1027.92 458.665C1029.85 458.388 1031.19 456.602 1030.91 454.674Z" fill="white"/>
</g>
<defs>
<linearGradient id="paint0_linear" x1="-0.145694" y1="517.84" x2="206.443" y2="284.197" gradientUnits="userSpaceOnUse">
<stop stop-color="#182DF4"/>
<stop offset="0.00520833" stop-color="#1A2DF3"/>
<stop offset="1" stop-color="#FF254C"/>
</linearGradient>
<clipPath id="clip0">
<rect width="1920" height="1100" fill="white"/>
</clipPath>
</defs>
</svg>
